<svg width="4" height="7" viewBox="0 0 4 7" fill="none" xmlns="http://www.w3.org/2000/svg">
<path d="M0.177646 0.184164C0.121333 0.242162 0.0766562 0.311053 0.0461734 0.386893C0.0156906 0.462733 0 0.544033 0 0.626139C0 0.708245 0.0156906 0.789545 0.0461734 0.865385C0.0766562 0.941225 0.121333 1.01012 0.177646 1.06811L2.53456 3.50055L0.177646 5.93298C0.0640659 6.0502 0.000257214 6.20918 0.000257214 6.37495C0.000257214 6.54073 0.0640659 6.69971 0.177646 6.81693C0.291226 6.93415 0.445273 7 0.605899 7C0.766525 7 0.920572 6.93415 1.03415 6.81693L3.82236 3.93939C3.87867 3.88139 3.92334 3.8125 3.95383 3.73666C3.98431 3.66082 4 3.57952 4 3.49741C4 3.41531 3.98431 3.33401 3.95383 3.25817C3.92334 3.18233 3.87867 3.11343 3.82236 3.05544L1.03415 0.177895C0.803321 -0.060333 0.414552 -0.0603329 0.177646 0.184164Z" fill="#BCBCBC"/>
</svg>
