<!-- icon666.com - MILLIONS vector ICONS FREE --><svg viewBox="-68 0 480 480" xmlns="http://www.w3.org/2000/svg"><path d="m155.199219 307.695312c-.449219-4.234374.195312-8.519531 1.878906-12.429687 1.730469-4.914063 2.714844-10.058594 2.921875-15.265625-.035156-26.058594-15.851562-49.496094-40-59.289062v-108.710938c2.292969 0 4.476562-.984375 5.996094-2.707031 1.519531-1.71875 2.222656-4.007813 1.941406-6.285157l-1.875-15.007812h9.9375v-16h-11.9375l-1-8h12.9375v-16h-14.9375l-1.125-8.992188c-.5-4.003906-3.902344-7.007812-7.9375-7.007812h-32c-4.035156 0-7.4375 3.003906-7.9375 7.007812l-1.125 8.992188h-14.9375v16h12.9375l-1 8h-11.9375v16h9.9375l-1.875 15.007812c-.28125 2.277344.421875 4.566407 1.941406 6.285157 1.519532 1.722656 3.703125 2.707031 5.996094 2.707031v108.710938c-24.148438 9.792968-39.964844 33.230468-40 59.289062.21875 5.207031 1.21875 10.351562 2.960938 15.265625 1.683593 3.910156 2.332031 8.195313 1.878906 12.429687-3.703125 10.742188-8.996094 20.867188-15.703125 30.039063-9.9375 15.242187-21.136719 32.523437-21.136719 54.265625 0 51.816406 39.480469 88 96 88s96-36.183594 96-88c0-21.742188-11.199219-39.023438-21.136719-54.265625-6.691406-9.171875-11.972656-19.296875-15.664062-30.039063zm-68.136719-259.695312h17.875l6 48h-29.875zm.9375 64h16v104.550781c-5.308594-.734375-10.691406-.734375-16 0zm8 352c-47.847656 0-80-28.9375-80-72 0-17 9.007812-30.863281 18.542969-45.535156 7.632812-10.515625 13.609375-22.140625 17.722656-34.464844 1.4375-7.160156.742187-14.585938-2-21.351562-1.242187-3.429688-2.003906-7.011719-2.265625-10.648438 0-26.507812 21.492188-48 48-48s48 21.492188 48 48c-.265625 3.625-1.027344 7.191406-2.265625 10.609375-2.75 6.777344-3.445313 14.21875-2 21.390625 4.109375 12.339844 10.085937 23.976562 17.722656 34.503906 9.535157 14.632813 18.542969 28.496094 18.542969 45.496094 0 43.0625-32.152344 72-80 72zm0 0"></path><path d="m96 328c17.671875 0 32-14.328125 32-32s-14.328125-32-32-32-32 14.328125-32 32 14.328125 32 32 32zm0-48c8.835938 0 16 7.164062 16 16s-7.164062 16-16 16-16-7.164062-16-16 7.164062-16 16-16zm0 0"></path><path d="m56 384h80v16h-80zm0 0"></path><path d="m320 0h-272c-13.253906 0-24 10.746094-24 24v208h16v-208c0-4.417969 3.582031-8 8-8h216v56c0 3.527344 2.304688 6.636719 5.679688 7.65625 3.375 1.023438 7.019531-.28125 8.976562-3.214844l9.34375-14.042968 9.34375 14.015624c1.953125 2.929688 5.59375 4.238282 8.964844 3.222657s5.683594-4.117188 5.691406-7.636719v-56h8c4.417969 0 8 3.582031 8 8v368c0 4.417969-3.582031 8-8 8h-112v16h112c13.253906 0 24-10.746094 24-24v-368c0-13.253906-10.746094-24-24-24zm-24 45.601562-1.34375-2.015624c-1.570312-2.101563-4.035156-3.335938-6.65625-3.335938s-5.085938 1.234375-6.65625 3.335938l-1.34375 2.015624v-29.601562h16zm0 0"></path><path d="m200 174.238281 48-12v15.203125c-2.5625-.9375-5.269531-1.425781-8-1.441406-13.253906 0-24 10.746094-24 24s10.746094 24 24 24 24-10.746094 24-24v-72c0-2.460938-1.136719-4.789062-3.074219-6.304688-1.941406-1.515624-4.472656-2.050781-6.863281-1.457031l-64 16c-3.5625.890625-6.0625 4.089844-6.0625 7.761719v49.472656c-2.5625-.949218-5.269531-1.445312-8-1.472656-13.253906 0-24 10.746094-24 24s10.746094 24 24 24 24-10.746094 24-24zm40 33.761719c-4.417969 0-8-3.582031-8-8s3.582031-8 8-8 8 3.582031 8 8-3.582031 8-8 8zm8-69.753906v7.515625l-48 12v-7.515625zm-72 85.753906c-4.417969 0-8-3.582031-8-8s3.582031-8 8-8 8 3.582031 8 8-3.582031 8-8 8zm0 0"></path><path d="m248 344v-41.761719l48-12v15.203125c-2.5625-.9375-5.269531-1.425781-8-1.441406-13.253906 0-24 10.746094-24 24s10.746094 24 24 24 24-10.746094 24-24v-72c0-2.464844-1.136719-4.789062-3.078125-6.304688-1.933594-1.53125-4.46875-2.070312-6.859375-1.457031l-64 16c-3.5625.890625-6.0625 4.089844-6.0625 7.761719v49.472656c-2.5625-.949218-5.269531-1.445312-8-1.472656-13.253906 0-24 10.746094-24 24s10.746094 24 24 24 24-10.746094 24-24zm40-8c-4.417969 0-8-3.582031-8-8s3.582031-8 8-8 8 3.582031 8 8-3.582031 8-8 8zm8-69.753906v7.515625l-48 12v-7.515625zm-80 77.753906c0-4.417969 3.582031-8 8-8s8 3.582031 8 8-3.582031 8-8 8-8-3.582031-8-8zm0 0"></path><path d="m168 80h64v16h-64zm0 0"></path><path d="m168 48h48v16h-48zm0 0"></path><path d="m208 432h16v16h-16zm0 0"></path><path d="m240 432h16v16h-16zm0 0"></path><path d="m272 432h16v16h-16zm0 0"></path></svg>