<svg width="38" height="22" viewBox="0 0 38 22" fill="none" xmlns="http://www.w3.org/2000/svg">
<path d="M20.5137 21.5026C20.5137 21.5026 21.188 21.4284 21.5334 21.0609C21.8495 20.7241 21.8385 20.0886 21.8385 20.0886C21.8385 20.0886 21.7965 17.1212 23.1872 16.6831C24.5577 16.2522 26.3175 19.5527 28.1851 20.8219C29.5959 21.7814 30.6668 21.5714 30.6668 21.5714L35.6574 21.5026C35.6574 21.5026 38.267 21.3433 37.0298 19.3101C36.9275 19.1436 36.308 17.8056 33.3202 15.0573C30.1898 12.1804 30.6101 12.6457 34.3782 7.66865C36.6735 4.63788 37.5908 2.78756 37.3039 1.99637C37.0316 1.23959 35.3431 1.44055 35.3431 1.44055L29.7257 1.47495C29.7257 1.47495 29.309 1.41883 29.0002 1.60169C28.6987 1.78092 28.5031 2.19915 28.5031 2.19915C28.5031 2.19915 27.615 4.54374 26.429 6.5389C23.9273 10.7465 22.9277 10.9692 22.5183 10.7085C21.5663 10.0983 21.8038 8.26068 21.8038 6.95531C21.8038 2.87627 22.4288 1.17622 20.5886 0.73627C19.9782 0.58962 19.5287 0.493664 17.9663 0.477369C15.9616 0.457454 14.2658 0.484611 13.3045 0.949908C12.6649 1.2595 12.1715 1.95111 12.4731 1.99094C12.844 2.03982 13.6846 2.21544 14.1305 2.81653C14.7062 3.59323 14.6861 5.33492 14.6861 5.33492C14.6861 5.33492 15.0168 10.1363 13.9131 10.732C13.1565 11.1412 12.1185 10.3065 9.88728 6.48821C8.74515 4.53287 7.88261 2.37114 7.88261 2.37114C7.88261 2.37114 7.71631 1.9674 7.41845 1.75015C7.05845 1.48762 6.55591 1.40615 6.55591 1.40615L1.21804 1.44055C1.21804 1.44055 0.415806 1.46228 0.121593 1.80808C-0.139727 2.11405 0.101491 2.74954 0.101491 2.74954C0.101491 2.74954 4.28078 12.4375 9.01378 17.3204C13.3539 21.7959 18.2806 21.5026 18.2806 21.5026H20.5137Z" fill="white"/>
</svg>
