<svg width="31" height="31" viewBox="0 0 31 31" fill="none" xmlns="http://www.w3.org/2000/svg">
<path fill-rule="evenodd" clip-rule="evenodd" d="M15.5063 0.849548C11.5357 0.849548 11.0374 0.86691 9.47787 0.93788C7.92141 1.00915 6.859 1.25557 5.92939 1.61712C4.9678 1.99054 4.15211 2.49007 3.33946 3.30302C2.5262 4.11567 2.02668 4.93137 1.65203 5.89265C1.28957 6.82257 1.04285 7.88528 0.972792 9.44113C0.903041 11.0006 0.884766 11.4992 0.884766 15.4699C0.884766 19.4405 0.902432 19.9373 0.973097 21.4968C1.04468 23.0533 1.29109 24.1157 1.65233 25.0453C2.02607 26.0069 2.52559 26.8226 3.33855 27.6352C4.15089 28.4485 4.96658 28.9492 5.92757 29.3227C6.85778 29.6842 7.9205 29.9306 9.47665 30.0019C11.0362 30.0729 11.5342 30.0902 15.5045 30.0902C19.4754 30.0902 19.9722 30.0729 21.5317 30.0019C23.0882 29.9306 24.1518 29.6842 25.082 29.3227C26.0433 28.9492 26.8578 28.4485 27.6701 27.6352C28.4834 26.8226 28.9829 26.0069 29.3576 25.0456C29.717 24.1157 29.9637 23.053 30.0368 21.4971C30.1069 19.9376 30.1251 19.4405 30.1251 15.4699C30.1251 11.4992 30.1069 11.0009 30.0368 9.44144C29.9637 7.88498 29.717 6.82257 29.3576 5.89296C28.9829 4.93136 28.4834 4.11567 27.6701 3.30302C26.8569 2.48977 26.0436 1.99024 25.0811 1.61712C24.1491 1.25557 23.0861 1.00915 21.5296 0.93788C19.9701 0.86691 19.4736 0.849548 15.5018 0.849548H15.5063ZM14.1946 3.48413C14.4493 3.48373 14.7232 3.48385 15.0189 3.48399L15.5062 3.48413C19.4098 3.48413 19.8725 3.49814 21.414 3.5682C22.8395 3.63338 23.6132 3.87157 24.1285 4.07168C24.8108 4.33668 25.2972 4.65345 25.8086 5.16516C26.3204 5.67688 26.6371 6.16422 26.9027 6.8465C27.1028 7.36126 27.3413 8.13492 27.4062 9.5604C27.4763 11.1016 27.4915 11.5646 27.4915 15.4664C27.4915 19.3682 27.4763 19.8312 27.4062 21.3724C27.341 22.7979 27.1028 23.5716 26.9027 24.0863C26.6377 24.7686 26.3204 25.2544 25.8086 25.7658C25.2969 26.2775 24.8111 26.5943 24.1285 26.8593C23.6138 27.0603 22.8395 27.2979 21.414 27.3631C19.8728 27.4332 19.4098 27.4484 15.5062 27.4484C11.6022 27.4484 11.1396 27.4332 9.59834 27.3631C8.17286 27.2973 7.3992 27.0591 6.88353 26.859C6.20125 26.594 5.7139 26.2772 5.20219 25.7655C4.69048 25.2538 4.37371 24.7677 4.1081 24.0851C3.90799 23.5703 3.66949 22.7967 3.60461 21.3712C3.53456 19.83 3.52055 19.367 3.52055 15.4628C3.52055 11.5585 3.53456 11.098 3.60461 9.55675C3.6698 8.13127 3.90799 7.35761 4.1081 6.84224C4.3731 6.15996 4.69048 5.67261 5.20219 5.1609C5.7139 4.64919 6.20125 4.33241 6.88353 4.06681C7.3989 3.86578 8.17286 3.6282 9.59834 3.56271C10.9471 3.5018 11.4697 3.48352 14.1946 3.48047V3.48413ZM21.5562 7.66564C21.5562 6.69673 22.3421 5.91181 23.3107 5.91181V5.9112C24.2793 5.9112 25.0651 6.69704 25.0651 7.66564C25.0651 8.63423 24.2793 9.42008 23.3107 9.42008C22.3421 9.42008 21.5562 8.63423 21.5562 7.66564ZM15.506 7.96165C11.3597 7.96181 7.99813 11.3235 7.99813 15.4698C7.99813 19.6162 11.3599 22.9764 15.5063 22.9764C19.6527 22.9764 23.0132 19.6162 23.0132 15.4698C23.0132 11.3234 19.6524 7.96165 15.506 7.96165ZM20.3796 15.4696C20.3796 12.778 18.1975 10.5962 15.5062 10.5962C12.8145 10.5962 10.6327 12.778 10.6327 15.4696C10.6327 18.161 12.8145 20.3431 15.5062 20.3431C18.1975 20.3431 20.3796 18.161 20.3796 15.4696Z" fill="white"/>
</svg>
