<svg width="30" height="30" viewBox="0 0 30 30" fill="none" xmlns="http://www.w3.org/2000/svg">
<path fill-rule="evenodd" clip-rule="evenodd" d="M14.7312 28.9891H14.7252C12.3003 28.9883 9.91747 28.3798 7.80115 27.2255L0.120117 29.2404L2.17569 21.7321C0.907712 19.5347 0.240509 17.0422 0.241597 14.4884C0.244775 6.49958 6.7447 0 14.7311 0C18.6072 0.00167287 22.2451 1.51062 24.9807 4.24941C27.7163 6.98806 29.2221 10.6284 29.2205 14.4999C29.2173 22.4869 22.72 28.9858 14.7312 28.9891ZM8.15714 24.6025L8.5969 24.8635C10.4459 25.9607 12.5655 26.5413 14.7265 26.5422H14.7314C21.3691 26.5422 26.7715 21.1396 26.7742 14.4991C26.7754 11.2812 25.524 8.25549 23.2503 5.97911C20.9765 3.70273 17.9528 2.44849 14.7361 2.44737C8.09324 2.44737 2.69072 7.8494 2.68809 14.4894C2.68715 16.7649 3.32385 18.9811 4.52938 20.8985L4.81572 21.3541L3.59911 25.7982L8.15714 24.6025ZM21.535 17.6193C21.7875 17.7413 21.958 17.8237 22.0308 17.9453C22.1213 18.0962 22.1213 18.8211 21.8197 19.6669C21.5179 20.5126 20.0716 21.2844 19.3759 21.3883C18.7522 21.4816 17.9629 21.5205 17.0957 21.2449C16.5698 21.078 15.8955 20.8553 15.0317 20.4822C11.6377 19.0167 9.34399 15.7271 8.91049 15.1054C8.88013 15.0618 8.85889 15.0314 8.84704 15.0156L8.84412 15.0117C8.65252 14.756 7.36874 13.0431 7.36874 11.2704C7.36874 9.60274 8.18791 8.72864 8.56498 8.32629C8.59081 8.29872 8.61457 8.27337 8.63585 8.25013C8.96769 7.88767 9.35994 7.79705 9.60129 7.79705C9.84261 7.79705 10.0842 7.79928 10.2952 7.80988C10.3212 7.81118 10.3483 7.81103 10.3763 7.81086C10.5872 7.80963 10.8503 7.80808 11.1097 8.43136C11.2096 8.67122 11.3556 9.02682 11.5097 9.40187C11.8212 10.1603 12.1654 10.9983 12.226 11.1195C12.3165 11.3008 12.3768 11.5121 12.2562 11.7538C12.238 11.7901 12.2213 11.8243 12.2053 11.857C12.1146 12.042 12.048 12.1781 11.8941 12.3578C11.8336 12.4284 11.7711 12.5045 11.7086 12.5807C11.584 12.7323 11.4595 12.884 11.3511 12.9921C11.1698 13.1726 10.9811 13.3685 11.1923 13.7309C11.4035 14.0934 12.1301 15.2789 13.2064 16.2389C14.3633 17.2709 15.3689 17.707 15.8786 17.9281C15.9781 17.9713 16.0587 18.0063 16.1179 18.0359C16.4798 18.2172 16.691 18.1868 16.9022 17.9453C17.1134 17.7036 17.8072 16.8881 18.0485 16.5257C18.2898 16.1634 18.5313 16.2237 18.8631 16.3445C19.195 16.4654 20.9749 17.3412 21.337 17.5224C21.4077 17.5577 21.4737 17.5897 21.535 17.6193Z" fill="white"/>
</svg>
