<svg width="29" height="30" viewBox="0 0 29 30" fill="none" xmlns="http://www.w3.org/2000/svg">
<path fill-rule="evenodd" clip-rule="evenodd" d="M0.0273438 15.0984C0.0273438 7.28293 6.40361 0.924622 14.2412 0.924622C22.0788 0.924622 28.4552 7.28293 28.4552 15.0984C28.4552 16.2055 28.3628 17.1018 28.1557 18.0015L28.1527 18.0164C28.1522 18.0191 28.0495 18.4338 27.9927 18.6147C27.6414 19.7351 27.0054 20.6682 26.1533 21.3132C25.327 21.9388 24.3024 22.2834 23.2684 22.2834C23.1407 22.2834 23.012 22.2782 22.886 22.2681C21.4177 22.1506 20.1266 21.3801 19.335 20.1515C17.9733 21.5167 16.1668 22.2679 14.2412 22.2679C10.2768 22.2679 7.05156 19.0516 7.05156 15.0984C7.05156 11.1452 10.2768 7.92905 14.2412 7.92905C18.2056 7.92905 21.4309 11.1452 21.4309 15.0984V17.4095C21.4368 18.758 22.3443 19.3092 23.1195 19.3716C23.8909 19.4309 24.9174 18.9829 25.275 17.5206C25.4514 16.7187 25.541 15.9035 25.541 15.0984C25.541 8.88521 20.4719 3.83051 14.2412 3.83051C8.01051 3.83051 2.94153 8.88521 2.94153 15.0984C2.94153 21.3115 8.01051 26.3663 14.2412 26.3663C16.4101 26.3663 18.5194 25.7486 20.3412 24.5799L20.3738 24.559L22.2887 26.779L22.2476 26.807C19.8812 28.4198 17.1126 29.2723 14.2412 29.2723C6.40361 29.2723 0.0273438 22.9139 0.0273438 15.0984ZM14.2412 19.3619C16.5986 19.3619 18.5166 17.4493 18.5166 15.0983C18.5166 12.7475 16.5986 10.835 14.2412 10.835C11.8836 10.835 9.9657 12.7475 9.9657 15.0983C9.9657 17.4493 11.8836 19.3619 14.2412 19.3619Z" fill="white"/>
</svg>
