<!-- icon666.com - MILLIONS vector ICONS FREE --><svg version="1.1" id="Capa_1" xmlns="http://www.w3.org/2000/svg" xmlns:xlink="http://www.w3.org/1999/xlink" x="0px" y="0px" viewBox="0 0 497.74 497.74" style="enable-background:new 0 0 497.74 497.74;" xml:space="preserve"><path d="M469.373,162.423H209.98l73.572-19.715c3.623-0.972,6.453-3.802,7.425-7.425c0.971-3.624-0.065-7.489-2.718-10.143 l-91.76-91.763c-2.651-2.652-6.516-3.689-10.143-2.718c-3.623,0.972-6.453,3.802-7.425,7.425l-33.263,124.139L112.406,38.085 c-0.972-3.623-3.802-6.453-7.425-7.425c-3.627-0.972-7.491,0.065-10.143,2.718L3.076,125.139c-2.652,2.652-3.688,6.519-2.718,10.143 c0.972,3.623,3.802,6.453,7.425,7.425l73.586,19.717h-8.984c-15.64,0-28.364,12.724-28.364,28.362v248.288 c0,15.64,12.725,28.364,28.364,28.364h396.989c15.642,0,28.366-12.725,28.366-28.364V190.785 C497.74,175.147,485.015,162.423,469.373,162.423z M379.248,316.546h97.491v97.491L379.248,316.546z M476.74,295.546H358.248 l-42.267-42.267H476.74V295.546z M476.74,190.785v41.494H294.982l-48.856-48.857h223.248 C473.435,183.423,476.74,186.726,476.74,190.785z M194.51,61.088l66.04,66.043l-90.214,24.174L194.51,61.088z M96.828,61.087 l24.174,90.214l-90.216-24.173L96.828,61.087z M65.02,253.28h55.86l42.267,42.267H65.02V253.28z M65.02,232.28v-34.86l34.86,34.86 H65.02z M65.02,439.073V316.546h119.127l129.892,129.892H72.384C68.324,446.438,65.02,443.134,65.02,439.073z M469.373,446.438 H343.738L80.723,183.423h135.703l259.322,259.322C474.474,444.948,472.097,446.438,469.373,446.438z"></path></svg>