<svg width="21" height="21" viewBox="0 0 21 21" fill="none" xmlns="http://www.w3.org/2000/svg">
<path d="M19.3592 21L12.9059 14.5125C11.4849 15.5794 9.75978 16.1578 7.9862 16.1619H7.98446L7.89045 16.1628C5.79777 16.1628 3.79081 15.3271 2.31106 13.8395C0.831313 12.3519 0 10.3343 0 8.23059L0.00087043 8.13084V8.13609C0.00087043 5.97826 0.853551 3.90882 2.37133 2.38301C3.88911 0.857193 5.94766 0 8.09413 0C10.2406 0 12.2992 0.857193 13.8169 2.38301C15.3347 3.90882 16.1874 5.97826 16.1874 8.13609C16.1649 9.92671 15.5854 11.6653 14.5301 13.108L14.5466 13.0844L21 19.5719L19.3592 21ZM8.09413 2.19809C6.53594 2.14744 5.02147 2.7207 3.88347 3.79191C2.74546 4.86312 2.077 6.34467 2.02495 7.91105C1.97289 9.47743 2.5415 11.0005 3.60585 12.1457C4.6702 13.2909 6.14323 13.9645 7.70131 14.0185C9.25939 14.0725 10.7751 13.5025 11.9154 12.4338C13.0557 11.365 13.7273 9.8849 13.7827 8.31863C13.8381 6.75237 13.2727 5.22805 12.2108 4.08058C11.1489 2.93311 9.67734 2.25634 8.11937 2.19897H8.09326H8.095L8.09413 2.19809Z" fill="#D5D5D5"/>
</svg>
