<svg width="13" height="13" viewBox="0 0 13 13" fill="none" xmlns="http://www.w3.org/2000/svg">
<path d="M8.02602 6.49908L12.6799 1.8554C12.8837 1.65158 12.9982 1.37513 12.9982 1.08687C12.9982 0.798614 12.8837 0.522165 12.6799 0.318337C12.4761 0.114509 12.1997 0 11.9114 0C11.6232 0 11.3468 0.114509 11.143 0.318337L6.5 4.97283L1.85699 0.318337C1.65319 0.114509 1.37678 -2.14767e-09 1.08856 0C0.800348 2.14767e-09 0.523938 0.114509 0.320139 0.318337C0.11634 0.522165 0.00184703 0.798614 0.00184703 1.08687C0.00184703 1.37513 0.11634 1.65158 0.320139 1.8554L4.97397 6.49908L0.320139 11.1427C0.218698 11.2434 0.138182 11.3631 0.0832357 11.495C0.0282893 11.6269 0 11.7684 0 11.9113C0 12.0542 0.0282893 12.1957 0.0832357 12.3276C0.138182 12.4595 0.218698 12.5792 0.320139 12.6798C0.420751 12.7813 0.540454 12.8618 0.67234 12.9168C0.804227 12.9717 0.945688 13 1.08856 13C1.23144 13 1.3729 12.9717 1.50479 12.9168C1.63667 12.8618 1.75637 12.7813 1.85699 12.6798L6.5 8.02532L11.143 12.6798C11.2436 12.7813 11.3633 12.8618 11.4952 12.9168C11.6271 12.9717 11.7686 13 11.9114 13C12.0543 13 12.1958 12.9717 12.3277 12.9168C12.4595 12.8618 12.5792 12.7813 12.6799 12.6798C12.7813 12.5792 12.8618 12.4595 12.9168 12.3276C12.9717 12.1957 13 12.0542 13 11.9113C13 11.7684 12.9717 11.6269 12.9168 11.495C12.8618 11.3631 12.7813 11.2434 12.6799 11.1427L8.02602 6.49908Z" fill="#BCBCBC"/>
</svg>
