<svg width="227" height="54" viewBox="0 0 227 54" fill="none" xmlns="http://www.w3.org/2000/svg">
<path d="M26.6237 10.5357C20.1282 10.5357 13.9034 14.181 11.0127 20.358C9.09642 24.4545 8.91554 29.0406 10.5037 33.2713C12.0917 37.5017 15.2595 40.8705 19.4222 42.7566C28.0132 46.65 38.2255 42.9387 42.183 34.4816C44.0993 30.3849 44.2802 25.7987 42.6922 21.5681C41.104 17.3377 37.9365 13.9689 33.7734 12.0828C31.457 11.033 29.0217 10.5357 26.6237 10.5357ZM26.5664 47.6177C23.6976 47.6177 20.7853 47.0236 18.013 45.7674C13.033 43.511 9.24383 39.4811 7.34386 34.4199C5.44395 29.3589 5.66029 23.8725 7.95376 18.9718C12.6877 8.85439 24.903 4.41529 35.1825 9.07167C40.1626 11.3282 43.9518 15.3584 45.8517 20.4193C47.7517 25.4803 47.5353 30.9666 45.2418 35.8675C41.7849 43.2566 34.3365 47.6177 26.5664 47.6177Z" fill="#007ABE"/>
<path d="M12.5306 20.4302C11.8603 21.7482 11.3691 23.1823 11.0953 24.7079C10.4171 28.491 11.1859 32.1955 13.0094 35.2729L24.1159 22.4423L12.5306 20.4302Z" fill="#007ABE"/>
<path d="M25.8812 11.8337C20.4257 12.11 15.5134 15.1593 12.877 19.7863L29.8365 22.7317L25.8812 11.8337Z" fill="#007ABE"/>
<path d="M40.8906 34.4097C41.5609 33.0916 42.0521 31.6576 42.3259 30.132C43.0039 26.3518 42.2364 22.6499 40.416 19.5737L29.3057 32.3975L40.8905 34.4097H40.8906Z" fill="#007ABE"/>
<path d="M40.0281 18.9521C37.7186 15.4358 33.9865 12.8379 29.4662 12.0526C28.5106 11.8865 27.5598 11.809 26.6226 11.8131L32.4062 27.7494L40.0281 18.9521H40.0281Z" fill="#007ABE"/>
<path d="M13.3975 35.8937C15.7075 39.4064 19.4375 42.0019 23.9551 42.7864C24.9729 42.9632 25.9846 43.039 26.9808 43.0234L21.02 27.0879L13.3975 35.8937V35.8937Z" fill="#007ABE"/>
<path d="M27.7206 42.995C33.1038 42.6611 37.9366 39.6291 40.5438 35.0536L23.6528 32.1199L27.7206 42.995Z" fill="#007ABE"/>
<path fill-rule="evenodd" clip-rule="evenodd" d="M0 43.5413H2.47809V51.4738H10.3255V53.9125H0V43.5413Z" fill="#007ABE"/>
<path fill-rule="evenodd" clip-rule="evenodd" d="M0 0H10.3255V2.43867H2.47809V10.3713H0V0Z" fill="#007ABE"/>
<path fill-rule="evenodd" clip-rule="evenodd" d="M53.7682 43.5413V53.9125H43.4424V51.4738H51.2901V43.5413H53.7682Z" fill="#007ABE"/>
<path fill-rule="evenodd" clip-rule="evenodd" d="M43.4424 0H53.7682V10.3713H51.2901V2.43867H43.4424V0Z" fill="#007ABE"/>
<path d="M88.1773 32.2512C88.1773 33.7447 87.8752 35.0825 87.2638 36.2574C86.6525 37.4324 85.811 38.4091 84.7465 39.1806C83.5094 40.0937 82.15 40.7448 80.6684 41.1342C79.1867 41.5234 77.3023 41.7146 75.0294 41.7146H61.335V10.84H73.519C76.0508 10.84 77.8992 10.925 79.0788 11.0877C80.2512 11.2576 81.4092 11.6186 82.5672 12.1848C83.7612 12.7794 84.6458 13.5792 85.2284 14.5772C85.811 15.5823 86.1059 16.7219 86.1059 18.0101C86.1059 19.5036 85.7104 20.8201 84.912 21.9596C84.1136 23.0992 82.9844 23.984 81.5243 24.621V24.7838C83.567 25.1872 85.1853 26.0154 86.3864 27.2753C87.5804 28.5351 88.1774 30.1915 88.1774 32.2511L88.1773 32.2512ZM77.8201 19.5603C77.8201 19.0507 77.6907 18.534 77.4317 18.0243C77.1728 17.5147 76.7196 17.1325 76.0652 16.8847C75.4753 16.6582 74.7489 16.5379 73.8714 16.5167C73.0012 16.4954 71.7785 16.4883 70.2033 16.4883H69.4481V23.0285H70.7067C71.9726 23.0285 73.0515 23.0073 73.9506 22.9648C74.8425 22.9222 75.5473 22.7878 76.0652 22.5472C76.7845 22.2357 77.2591 21.8181 77.4821 21.3156C77.7051 20.813 77.8202 20.2255 77.8202 19.5602L77.8201 19.5603ZM79.7621 32.131C79.7621 31.14 79.5679 30.3826 79.1867 29.8448C78.8055 29.3139 78.151 28.9105 77.2376 28.6486C76.6118 28.4717 75.7487 28.3725 74.6483 28.3584C73.5479 28.3442 72.397 28.3372 71.203 28.3372H69.4481V36.0664H70.0307C72.2891 36.0664 73.9002 36.0594 74.8784 36.0452C75.8494 36.031 76.7485 35.8541 77.5684 35.5002C78.4028 35.1533 78.9781 34.6933 79.2946 34.12C79.6039 33.5396 79.7621 32.8813 79.7621 32.131L79.7621 32.131ZM122.816 41.7147H114.919V21.167L101.936 41.7147H94.2046V10.8401H102.102V29.4412L114.185 10.8401H122.816V41.7147ZM161.469 48.8069H154.046V41.6297H135.015V48.8069H127.592V35.7266H129.966C131.584 32.3646 132.821 28.5778 133.684 24.3592C134.54 20.1478 134.972 15.639 134.972 10.8401H158.361V35.7266H161.469V48.8069H161.469ZM150.248 35.7266V16.8282H142.437C142.171 20.5866 141.625 24.0549 140.783 27.24C139.942 30.4251 138.927 33.2563 137.733 35.7266H150.248ZM189.706 41.7147H167.007V10.8401H189.706V16.8282H175.12V22.1367H188.671V28.1248H175.12V35.7266H189.706V41.7147ZM226.999 26.2845C226.999 31.2037 225.568 35.1108 222.698 38.0057C219.828 40.9007 215.865 42.3517 210.809 42.3517C205.76 42.3517 201.804 40.9007 198.934 38.0057C196.064 35.1108 194.633 31.2037 194.633 26.2845C194.633 21.3298 196.064 17.4086 198.934 14.5278C201.804 11.6471 205.76 10.2031 210.809 10.2031C215.836 10.2031 219.792 11.6471 222.677 14.5278C225.561 17.4086 226.999 21.3298 226.999 26.2845H226.999ZM216.268 34.1057C217.052 33.1643 217.635 32.0602 218.016 30.779C218.397 29.4979 218.584 27.9974 218.584 26.2633C218.584 24.4159 218.368 22.8375 217.93 21.5352C217.498 20.2398 216.923 19.1852 216.225 18.3854C215.506 17.5572 214.679 16.9556 213.744 16.5805C212.809 16.2054 211.838 16.0213 210.831 16.0213C209.802 16.0213 208.838 16.1983 207.932 16.5592C207.019 16.9202 206.191 17.5148 205.429 18.3429C204.724 19.1214 204.156 20.1832 203.71 21.5493C203.271 22.9083 203.048 24.4867 203.048 26.2845C203.048 28.1249 203.264 29.6961 203.688 30.9844C204.12 32.2797 204.688 33.3343 205.386 34.1483C206.091 34.9623 206.911 35.5639 207.853 35.9532C208.795 36.3424 209.788 36.5336 210.83 36.5336C211.866 36.5336 212.859 36.3354 213.801 35.939C214.743 35.5498 215.563 34.9339 216.268 34.1058L216.268 34.1057Z" fill="#007ABE"/>
</svg>
