<svg width="24" height="24" viewBox="0 0 24 24" fill="none" xmlns="http://www.w3.org/2000/svg">
<path fill-rule="evenodd" clip-rule="evenodd" d="M13.6539 13.8881C13.4982 13.613 12.8309 13.2263 12.692 12.8399C12.5882 12.5513 12.6439 12.1612 12.7945 11.9802C13.7282 10.8582 13.716 10.3929 14.1591 9.28606C14.2389 9.0866 14.4461 8.99729 14.5924 8.76058C15.2962 7.62175 14.5098 6.84158 14.5004 6.37987C14.4696 4.8625 14.6899 3.17469 13.9972 1.91665C12.8713 -0.1281 9.98269 -0.322213 8.19869 0.340575C5.57186 1.31653 5.82958 3.88091 5.82021 6.00102C5.81784 6.54042 5.88763 6.47272 5.67077 6.85261C5.24129 7.60484 5.43753 8.53922 6.01426 9.09706C6.21989 9.29594 6.21302 9.46441 6.32722 9.79833C6.95668 11.6387 7.67331 11.8088 7.6705 12.4394C7.66888 12.7965 7.58521 12.9543 7.40215 13.1665C6.65249 14.0354 4.89735 15.0334 3.86476 15.587C-0.532958 17.9445 0.0237804 16.4343 0.0226675 19.7377C0.0219841 21.6569 0.118825 21.3885 2.3481 21.387C3.67309 21.3861 4.9985 21.3842 6.32341 21.3869C6.4821 21.2195 6.59931 21.0682 6.76939 20.8962L13.6539 13.8881Z" fill="#007ABE"/>
<path fill-rule="evenodd" clip-rule="evenodd" d="M20.5731 10.3208C21.0757 10.2368 21.5184 10.6383 21.5903 11.1152C21.6696 11.6411 21.2488 12.1211 20.8012 12.1712C19.6041 12.3053 19.3129 10.5315 20.5731 10.3208ZM17.8315 16.1912C18.3068 16.2724 18.6335 16.4976 19.2733 16.5167C20.7805 16.5616 21.9719 16.0082 22.8318 14.8152C24.1649 12.9658 23.7166 10.0717 21.4894 8.80095C19.413 7.61623 16.6488 8.56461 15.7558 10.8554C15.2635 12.1182 15.5004 12.8001 15.6983 13.8552L11.0774 18.5047C10.5319 18.9968 8.76967 20.8585 8.03873 21.5942C7.87004 21.764 7.68778 21.9259 7.54346 22.0994C7.55421 22.424 7.98975 23.2064 8.09034 23.5805L10.4819 23.4791C10.6582 23.0602 10.8147 21.8166 11.0354 21.5257C11.2316 21.3156 13.0582 21.1578 13.2271 21.0193C13.4345 20.8492 13.5879 18.4306 13.702 18.1286C13.963 18.0148 14.7755 18.1153 15.1493 18.1216C16.0592 18.1368 15.8235 18.2262 16.305 17.7449L17.8315 16.1912Z" fill="#36991D"/>
<path fill-rule="evenodd" clip-rule="evenodd" d="M14.6489 21.3702C15.2433 21.4466 16.2556 21.3854 16.8953 21.3858C17.6535 21.3863 18.4121 21.383 19.1702 21.3862C20.112 21.3902 20.312 21.1948 20.3055 20.2205C20.3003 19.4437 20.3054 18.6658 20.3038 17.8888C19.6329 17.9405 19.2067 17.9742 18.5431 17.8468C18.1365 17.7687 18.1611 17.8409 17.9473 18.0675C17.7877 18.2367 17.6593 18.3607 17.4984 18.5242C17.2669 18.7597 16.8717 19.2281 16.5573 19.3904C16.0736 19.64 15.4664 19.4859 14.9024 19.5433L14.6489 21.3702Z" fill="#007ABE"/>
</svg>
