<svg width="21" height="23" viewBox="0 0 21 23" fill="none" xmlns="http://www.w3.org/2000/svg">
<path d="M0.147698 0.524529C0.279374 0.12167 0.699375 -0.0948952 1.08759 0.0401673L1.89808 0.321936C2.83344 0.692193 3.50998 1.23477 3.9822 2.77169L19.9899 4.75804C20.3918 4.80694 20.6801 5.18186 20.6392 5.60102L19.8038 14.0867C19.7652 14.4779 19.4451 14.7783 19.0659 14.7783L6.72696 14.7876L5.90058 16.6156C5.77799 16.9253 5.80296 17.079 5.81431 17.1C5.82793 17.1186 5.95053 17.1954 6.25928 17.1954H19.1C19.3202 17.1954 19.5336 17.2979 19.6744 17.4772L20.478 18.4902C20.7368 18.8185 20.6937 19.3029 20.3759 19.573C20.2374 19.6894 20.0694 19.7477 19.9059 19.7477C19.6902 19.7477 19.4768 19.6522 19.3315 19.4659L18.7549 18.7347H17.2315V19.0747C17.9921 19.3122 18.5528 20.0387 18.5528 20.9027C18.5528 21.9599 17.7219 22.8192 16.7026 22.8192C15.6809 22.8192 14.8523 21.9599 14.8523 20.9027C14.8523 20.0364 15.413 19.3122 16.1736 19.0747V18.7347H8.3888V19.0747C9.14935 19.3122 9.71011 20.0387 9.71011 20.9027C9.71011 21.9599 8.87918 22.8192 7.85983 22.8192C6.8382 22.8192 6.00955 21.9599 6.00955 20.9027C6.00955 20.0364 6.56804 19.3122 7.32859 19.0747V18.7347H6.25928C5.28988 18.7347 4.81312 18.3132 4.58382 17.9616C4.35225 17.6053 4.15474 16.9835 4.54068 16.0008L5.48285 13.9167L2.59052 3.31427C2.2636 2.18487 1.90943 1.97296 1.39862 1.77036L0.615375 1.49791C0.227157 1.36285 0.018292 0.927388 0.147698 0.524529ZM15.9057 20.9027C15.9057 21.3544 16.2599 21.72 16.6957 21.72C17.1316 21.72 17.4858 21.3544 17.4858 20.9027C17.4858 20.6628 17.3836 20.4486 17.2247 20.2995V20.4509C17.2247 20.7536 16.9863 21.0028 16.6957 21.0028C16.4029 21.0028 16.1645 20.756 16.1645 20.4509V20.2972C16.0079 20.4486 15.9057 20.6628 15.9057 20.9027ZM7.06977 20.9027C7.06977 21.3544 7.42394 21.72 7.85983 21.72C8.29572 21.72 8.64762 21.3544 8.64762 20.9027C8.64762 20.6628 8.54772 20.4486 8.3888 20.2995V20.4509C8.3888 20.7536 8.15042 21.0028 7.85983 21.0028C7.56696 21.0028 7.32859 20.756 7.32859 20.4509V20.2995C7.17194 20.4486 7.06977 20.6628 7.06977 20.9027ZM6.84275 13.2484L9.08351 13.246L8.85194 11.9094L6.46134 11.8488L6.84275 13.2484ZM11.9895 8.88443L11.8759 7.51751L8.90416 7.2404L9.15843 8.7028L11.9895 8.88443ZM9.31281 9.59468L9.56481 11.0478L12.1756 11.113L12.0644 9.76933L9.31281 9.59468ZM11.801 6.62563L11.6898 5.27733L8.49551 4.88146L8.74751 6.34386L11.801 6.62563ZM12.6615 6.7048L15.7195 6.98657L15.7445 5.78032L12.5502 5.38445L12.6615 6.7048ZM12.7341 7.59668L12.8454 8.93799L15.6764 9.1173L15.7014 7.86914L12.7341 7.59668ZM16.5232 9.17086L18.7799 9.31524L18.8934 8.1672L16.5482 7.95064L16.5232 9.17086ZM16.505 10.0511L16.4823 11.2224L18.5869 11.276L18.6936 10.1908L16.505 10.0511ZM15.6582 9.99753L12.9203 9.82288L13.0293 11.1339L15.6333 11.1991L15.6582 9.99753ZM13.1019 12.0165L13.2041 13.2437L15.5924 13.2414L15.6174 12.0794L13.1019 12.0165ZM12.2483 11.9955L9.71919 11.9303L9.94848 13.246L12.355 13.2437L12.2483 11.9955ZM6.21842 10.9639L8.69756 11.0268L8.43875 9.54112L5.7848 9.37345L6.21842 10.9639ZM5.53961 8.47459L8.28437 8.64924L8.02556 7.16122L5.10598 6.8911L5.53961 8.47459ZM4.86079 5.98292L7.87118 6.26236L7.61237 4.77201L4.42263 4.37614L4.86079 5.98292ZM16.5913 5.88744L16.5686 7.06808L18.9819 7.29163L19.0909 6.19715L16.5913 5.88744ZM18.5006 12.1516L16.4642 12.1003L16.4415 13.239L18.3939 13.2367L18.5006 12.1516Z" fill="#1F9D1C"/>
</svg>
