<svg width="11" height="16" viewBox="0 0 11 16" fill="none" xmlns="http://www.w3.org/2000/svg">
<path fill-rule="evenodd" clip-rule="evenodd" d="M5.24237 2.61737C6.20482 2.53325 7.02053 2.92516 7.49857 3.35895C8.06104 3.86938 8.4382 4.5312 8.51015 5.36205C8.59485 6.34011 8.19906 7.12171 7.76846 7.61045C6.59274 8.94485 4.52358 8.97379 3.31239 7.69342C3.17468 7.54784 3.08897 7.44098 2.97939 7.27462C2.71973 6.8804 2.54317 6.42156 2.4946 5.87978C2.45357 5.42215 2.52756 4.94846 2.67085 4.56951C2.82652 4.15781 3.10135 3.72508 3.42267 3.43327C3.9285 2.97392 4.49949 2.6823 5.24238 2.61736L5.24237 2.61737ZM5.06268 0.327237L5.04866 0.332975C4.98997 0.346548 4.9222 0.326581 4.86493 0.347014C4.83323 0.358325 4.78258 0.353499 4.74594 0.356555L4.61844 0.377344C4.5532 0.385973 4.62587 0.393116 4.53882 0.396609L4.19949 0.462651C4.19638 0.463609 4.1885 0.467367 4.18541 0.468334L4.04734 0.508233C4.02379 0.515367 4.03005 0.511627 4.00593 0.516261C4.00298 0.516826 4.00037 0.517072 3.9975 0.517711C3.99473 0.518322 3.99219 0.518924 3.98952 0.519627L3.23673 0.795079C3.23472 0.796101 3.2322 0.797442 3.23021 0.798464L2.97982 0.92378C2.94731 0.940026 3.0127 0.907333 2.96663 0.930366L2.95345 0.936952C2.95142 0.937973 2.94888 0.939241 2.94686 0.940245L2.80156 1.02235C2.79978 1.02352 2.79728 1.02501 2.79544 1.02611L2.73584 1.05551C2.73312 1.05685 2.72519 1.06056 2.72247 1.06191L2.16241 1.44111C2.15838 1.44347 2.15341 1.44549 2.14936 1.44784C2.10433 1.47417 2.10424 1.49272 2.04411 1.53044L2.022 1.54788C1.99342 1.57455 1.97166 1.60351 1.93837 1.62244C1.87874 1.65634 1.80233 1.75554 1.77331 1.77376C1.76051 1.78179 1.76525 1.77737 1.75388 1.784C1.73882 1.79278 1.75022 1.78425 1.73573 1.79549C1.72088 1.80702 1.7281 1.80235 1.72045 1.80989L1.67143 1.85973C1.61546 1.91568 1.51197 2.01027 1.49045 2.04457C1.48242 2.05737 1.48684 2.05263 1.48022 2.06399C1.47912 2.06587 1.47786 2.06853 1.47671 2.07037C1.47558 2.07219 1.47413 2.07472 1.47292 2.07646C1.44239 2.1204 1.39737 2.15348 1.35967 2.19062C1.34902 2.2011 1.34008 2.21006 1.33226 2.22253C1.3311 2.22437 1.32986 2.22702 1.32876 2.22891C1.30336 2.27243 1.2421 2.32728 1.23339 2.34117C1.22536 2.35397 1.22979 2.34923 1.22316 2.36059C1.20167 2.39741 1.16639 2.42141 1.14406 2.45945L1.08811 2.53204C1.07409 2.55656 1.08856 2.53909 1.06848 2.56185L0.982093 2.6831C0.979302 2.68742 0.963265 2.70756 0.960757 2.71119C0.959562 2.71292 0.957975 2.71537 0.956834 2.71716L0.752313 3.04655C0.751264 3.04848 0.749941 3.05106 0.748819 3.05294L0.527915 3.47469C0.526894 3.4767 0.525589 3.47924 0.524568 3.48124L0.459656 3.61406C0.453709 3.63174 0.454904 3.63507 0.448455 3.65229C0.447351 3.65526 0.443793 3.66336 0.442535 3.66615L0.397993 3.76003C0.397007 3.76311 0.394645 3.7724 0.393678 3.77548L0.380944 3.81219C0.377824 3.82181 0.377195 3.82605 0.374248 3.83515C0.373446 3.8376 0.372789 3.84031 0.371941 3.84273L0.363357 3.86381C0.362399 3.86586 0.360985 3.86831 0.359991 3.87032L0.32416 3.96303C0.323348 3.96541 0.322381 3.96796 0.321588 3.97035L0.264841 4.14101C0.262232 4.14862 0.260982 4.15286 0.257598 4.16341L0.101459 4.76857C0.0978469 4.7865 0.100255 4.7985 0.0995526 4.81611C0.0973725 4.87019 0.0865814 4.85274 0.0796396 4.94451C0.0752064 5.00304 0.0738837 4.96945 0.0667231 4.99091C0.0539433 5.02922 0.0632476 5.04272 0.0601371 5.08319C0.0537974 5.16561 0.046883 5.07921 0.0397041 5.16162C0.0351158 5.21427 0.0481966 5.26973 0.03019 5.3202C0.00274232 5.39712 0.0196086 5.54676 0.0203931 5.63668L0.0183407 5.71372C0.00326226 5.78361 -0.0115881 5.78687 0.0134331 5.86097C0.0395764 5.93842 0.0182677 6.11576 0.019563 6.21077C0.020083 6.24868 0.0303816 6.25526 0.0381078 6.29109C0.042842 6.31307 0.0400507 6.36358 0.0397223 6.38834L0.0499571 6.46709C0.0507598 6.46936 0.0521919 6.47165 0.0529673 6.47396C0.0646159 6.50872 0.0555579 6.54073 0.060356 6.57533C0.0693684 6.64041 0.0762736 6.56777 0.0797673 6.6548C0.0804697 6.67238 0.0780615 6.68442 0.0816738 6.70232L0.0865084 6.71727C0.0872746 6.71959 0.0887068 6.72186 0.0895095 6.72415L0.0952106 6.73824C0.104688 6.77284 0.0950282 6.80128 0.106275 6.83593L0.116848 6.8649C0.12046 6.88285 0.117805 6.89383 0.120205 6.91097C0.127985 6.96632 0.123388 6.92226 0.131735 6.94889L0.213375 7.27261C0.218465 7.29148 0.216595 7.29656 0.220655 7.31478C0.221266 7.31753 0.221868 7.32008 0.22257 7.32276C0.223245 7.32531 0.224166 7.32779 0.224914 7.33028C0.225653 7.33272 0.226766 7.33515 0.22756 7.33753C0.228344 7.3399 0.229503 7.34233 0.230296 7.34468L0.301812 7.55989C0.302614 7.56227 0.303572 7.56482 0.304384 7.56721C0.304393 7.56721 0.309666 7.58168 0.309666 7.5817C0.313442 7.59275 0.317082 7.60564 0.321588 7.61922L0.326796 7.63379C0.327608 7.63615 0.32863 7.63867 0.329424 7.64104L0.450991 7.94461C0.456975 7.96222 0.455761 7.96559 0.462201 7.98284L0.481613 8.02275C0.482644 8.02474 0.483939 8.0273 0.48496 8.02929L0.834164 8.68857C0.835258 8.69043 0.836754 8.69292 0.837913 8.6947L0.87409 8.74752C0.875212 8.74935 0.876571 8.75194 0.87773 8.75375L1.00419 8.94369C1.02431 8.96889 1.01152 8.94866 1.02892 8.96836L1.16042 9.16315C1.16175 9.16588 1.16541 9.17387 1.16682 9.17652C1.16788 9.17846 1.1692 9.18104 1.17031 9.18291L1.41163 9.54471C1.41437 9.54896 1.43092 9.56953 1.43311 9.57266L1.57531 9.79628C1.57647 9.79808 1.57784 9.80067 1.57895 9.80253L1.61486 9.85562C1.61603 9.85741 1.61738 9.86 1.61851 9.86185L1.69395 9.97425C1.69511 9.97606 1.69647 9.97865 1.6976 9.9805L1.7335 10.0336C1.73466 10.0354 1.73601 10.038 1.73715 10.0398L1.91146 10.3104C1.91263 10.3122 1.91398 10.3148 1.91511 10.3167C1.92181 10.3276 1.9179 10.3235 1.92575 10.3357L2.0301 10.4884C2.03127 10.4902 2.03264 10.4928 2.03377 10.4946C2.0349 10.4965 2.03613 10.4992 2.03725 10.501C2.03837 10.5029 2.03961 10.5056 2.04074 10.5074L2.10947 10.6068C2.11064 10.6086 2.11214 10.6111 2.11323 10.6129L2.21871 10.7843C2.21984 10.7861 2.22119 10.7887 2.22236 10.7905C2.2235 10.7923 2.22509 10.7947 2.22629 10.7965L2.25826 10.8436C2.25938 10.8454 2.26074 10.848 2.26191 10.8498L2.30145 10.9091C2.30261 10.9109 2.30418 10.9134 2.30537 10.9151C2.30788 10.9187 2.32394 10.9389 2.32671 10.9432C2.32788 10.945 2.32925 10.9476 2.33038 10.9494L2.33735 10.9622C2.33848 10.9641 2.33985 10.9667 2.341 10.9685L2.67351 11.4764C2.67464 11.4782 2.67599 11.4808 2.67715 11.4826L2.70608 11.5229C2.70672 11.5239 2.71241 11.5346 2.71305 11.5357L2.8633 11.771C2.865 11.7734 2.87051 11.7795 2.87222 11.7819L2.90285 11.8303C2.90455 11.8327 2.91006 11.8388 2.91177 11.8412L2.98194 11.949C2.98365 11.9513 2.98916 11.9575 2.99086 11.9598C2.99208 11.9615 2.99393 11.9638 2.99511 11.9655L3.177 12.2483C3.17816 12.2501 3.17953 12.2527 3.18064 12.2545L3.23901 12.3445C3.24071 12.3468 3.24622 12.353 3.24792 12.3553L3.27855 12.4038C3.28025 12.4061 3.28576 12.4123 3.28747 12.4146L3.34582 12.5046C3.34695 12.5064 3.3483 12.509 3.34947 12.5108L3.43441 12.6434C3.43541 12.6455 3.43654 12.6481 3.43756 12.6502L3.5203 12.775C3.52142 12.7769 3.52264 12.7796 3.52379 12.7814L3.675 13.0059C3.67613 13.0078 3.67738 13.0105 3.6785 13.0123L3.68564 13.025C3.69192 13.0347 3.68975 13.0305 3.69826 13.042L3.96797 13.4545C3.97582 13.4667 3.9719 13.4626 3.97861 13.4735L4.06528 13.6044C4.06561 13.6049 4.07477 13.6157 4.07852 13.6208L4.10675 13.6717C4.10704 13.6723 4.11581 13.69 4.11665 13.6914L4.22503 13.85C4.23288 13.8622 4.22897 13.8581 4.23567 13.869L4.30414 13.9686C4.31198 13.9808 4.30807 13.9767 4.31476 13.9877L4.47392 14.2339C4.47514 14.2356 4.47699 14.2378 4.47817 14.2395L4.56119 14.3641C4.56904 14.3763 4.56512 14.3722 4.57183 14.3831C4.57296 14.385 4.57431 14.3876 4.57548 14.3894L4.6835 14.5483C4.69019 14.5593 4.68629 14.5552 4.69413 14.5674C4.69693 14.5717 4.71296 14.5918 4.71547 14.5954L4.76601 14.6734C4.76712 14.6753 4.7683 14.678 4.76942 14.6799L4.82204 14.7459C4.85232 14.7975 4.89644 14.833 4.93905 14.8761L5.0498 14.9631C5.05159 14.9643 5.05407 14.9658 5.05593 14.9669L5.11543 14.9963C5.11743 14.9973 5.12661 15.0019 5.12861 15.0029L5.20798 15.0422C5.21029 15.0431 5.21293 15.044 5.2153 15.0448L5.42833 15.0888C5.50446 15.088 5.60663 15.1023 5.67589 15.0789C5.67823 15.0782 5.68056 15.0769 5.68294 15.0761L5.93953 14.9867C5.94139 14.9856 5.94386 14.984 5.94565 14.9829L6.11113 14.8616L6.30847 14.6042C6.31019 14.6018 6.31551 14.5955 6.31717 14.5931L6.4002 14.4685C6.40135 14.4667 6.40271 14.4641 6.40384 14.4623L6.49088 14.3219C6.49211 14.3202 6.49395 14.318 6.49513 14.3163L6.54227 14.2447C6.56212 14.2123 6.52939 14.2644 6.54924 14.2319L6.57816 14.1917C6.57933 14.1899 6.58068 14.1873 6.58181 14.1854C6.58851 14.1745 6.5846 14.1786 6.59245 14.1664L7.05989 13.4573C7.06839 13.4458 7.06625 13.45 7.07252 13.4403L7.15873 13.299C7.16047 13.2967 7.16579 13.2904 7.16745 13.288L7.67637 12.5116C7.6775 12.5098 7.67885 12.5072 7.68002 12.5054L7.74483 12.412C7.746 12.4102 7.74735 12.4076 7.74848 12.4058L7.8869 12.1882C7.89359 12.1773 7.88969 12.1814 7.89753 12.1692L7.95841 12.0818C7.95962 12.0801 7.96119 12.0776 7.96234 12.0758L8.33805 11.5024C8.33921 11.5006 8.34058 11.498 8.34169 11.4962L8.45695 11.3247C8.45812 11.3229 8.45961 11.3204 8.46071 11.3186L8.55555 11.1662C8.55671 11.1644 8.55806 11.1618 8.5592 11.16L8.83067 10.7394C8.83287 10.7362 8.84942 10.7157 8.85215 10.7114L9.07236 10.378C9.12828 10.3009 9.1557 10.2399 9.20653 10.1661L9.25031 10.1011C9.25202 10.0988 9.25753 10.0926 9.25924 10.0903L9.32941 9.98249C9.33111 9.98013 9.33663 9.974 9.33833 9.97164L9.36896 9.92317C9.37067 9.92081 9.37618 9.91467 9.37788 9.91232L9.44807 9.80454C9.45214 9.799 9.46095 9.78877 9.46137 9.78818L9.58647 9.587C9.58818 9.58466 9.59369 9.57851 9.59539 9.57615L9.86816 9.15682C9.86958 9.1542 9.87328 9.14624 9.87462 9.14352L9.88103 9.13014C9.88202 9.1281 9.88329 9.12555 9.88427 9.1235C9.88562 9.12078 9.88948 9.11299 9.89081 9.11027L10.07 8.84451C10.0712 8.84282 10.073 8.84059 10.0742 8.83887L10.1913 8.64946C10.1925 8.64768 10.194 8.64523 10.1952 8.64349L10.2701 8.51077C10.2713 8.509 10.273 8.50664 10.2742 8.50492C10.2757 8.5027 10.294 8.48028 10.2959 8.47724C10.2971 8.47546 10.2986 8.47297 10.2997 8.47112L10.3358 8.39843C10.3386 8.39286 10.3418 8.38633 10.3456 8.37866L10.4083 8.25341C10.4123 8.24529 10.4108 8.24836 10.4149 8.24022L10.4874 8.09522C10.4884 8.09321 10.4896 8.09065 10.4907 8.08862L10.6634 7.66816C10.6642 7.66576 10.6652 7.66321 10.666 7.66084L10.7623 7.37153C10.7631 7.36915 10.764 7.36659 10.7649 7.36422L10.7727 7.34242C10.7771 7.32942 10.7815 7.31491 10.7849 7.30517C10.7859 7.30215 10.7893 7.2939 10.7903 7.29079C10.795 7.27501 10.7924 7.28552 10.796 7.26684L10.8394 7.08283C10.84 7.0801 10.8407 7.07756 10.8414 7.07493L10.8493 7.05323C10.8501 7.05075 10.8511 7.04834 10.8518 7.04581L10.897 6.81423C10.9051 6.75752 10.9 6.80403 10.9089 6.77664C10.9213 6.73839 10.9104 6.72338 10.9178 6.68672C10.9239 6.657 10.9358 6.63814 10.9359 6.60593C10.936 6.59128 10.9341 6.5707 10.9361 6.55664C10.946 6.48467 10.95 6.54391 10.9547 6.41703C10.9567 6.36057 10.9762 6.38512 10.9751 6.2397C10.9748 6.20538 10.9714 6.16932 10.982 6.13786C11.0134 6.04462 10.9939 5.69612 10.9952 5.55718L10.982 5.47158C10.9644 5.41936 10.9767 5.34034 10.9759 5.27997C10.9753 5.24202 10.965 5.23537 10.9573 5.19964C10.9512 5.17135 10.9581 5.13148 10.9557 5.10238C10.9513 5.04985 10.9395 5.08279 10.9361 4.97367C10.9357 4.96255 10.9359 4.9574 10.9336 4.94651C10.9271 4.91584 10.929 4.93418 10.9257 4.92476C10.915 4.89458 10.9193 4.86831 10.9151 4.83644C10.9076 4.7796 10.9117 4.82625 10.903 4.79915C10.8944 4.77224 10.8988 4.78737 10.896 4.75667C10.8916 4.70767 10.8849 4.73025 10.8773 4.67654L10.8438 4.52214C10.8431 4.51966 10.842 4.51725 10.8414 4.51472C10.8406 4.51207 10.84 4.50955 10.8394 4.50682L10.807 4.37109C10.8063 4.36871 10.805 4.36637 10.8043 4.36394L10.7528 4.18807C10.752 4.1857 10.7509 4.18321 10.7501 4.18086L10.7283 4.09387C10.7275 4.0915 10.7264 4.08908 10.7256 4.08672L10.5444 3.62524C10.5406 3.61384 10.5413 3.61239 10.538 3.60197L10.4939 3.50763C10.4929 3.5056 10.4917 3.50306 10.4906 3.50103C10.4896 3.49901 10.4884 3.49646 10.4873 3.49444C10.4863 3.49242 10.4851 3.48987 10.4841 3.48785L10.1477 2.87503C10.1466 2.87315 10.1453 2.87058 10.1442 2.86863L10.1378 2.85527C10.1368 2.85319 10.1357 2.85056 10.1347 2.84848L10.0161 2.67052C10.0093 2.66358 10.0133 2.67059 10.0014 2.65558L9.97535 2.61239C9.97417 2.61067 9.97233 2.60842 9.9711 2.60674L9.95039 2.57801C9.94927 2.57614 9.94805 2.57346 9.94695 2.57157L9.80508 2.38717C9.80397 2.38527 9.80273 2.38262 9.80158 2.38078L9.72935 2.29481C9.7157 2.27082 9.7289 2.28697 9.70988 2.26485C9.70178 2.25542 9.69783 2.25303 9.6849 2.24041L9.64499 2.20122C9.61935 2.17596 9.61367 2.1525 9.59125 2.12643L9.44265 1.97844C9.38004 1.91587 9.23455 1.74792 9.1494 1.69823C9.08095 1.65826 9.07837 1.61891 9.01098 1.57958C8.96715 1.554 8.9385 1.51055 8.88597 1.47719C8.87469 1.47003 8.86697 1.46186 8.8593 1.45442C8.85165 1.44696 8.84393 1.43881 8.83264 1.43164L8.79515 1.40981C8.76983 1.38965 8.79026 1.40252 8.77047 1.38505C8.74772 1.36497 8.76517 1.37945 8.74066 1.36542L8.67447 1.31297C8.66165 1.30475 8.66658 1.30941 8.65519 1.30257C8.65334 1.30145 8.65076 1.3001 8.64894 1.29894L8.39772 1.13491C8.39498 1.1336 8.38699 1.12993 8.38435 1.1285L8.24527 1.04018C8.24356 1.03898 8.2412 1.03729 8.23943 1.03614C8.23763 1.03498 8.23515 1.03348 8.23331 1.03238L8.08796 0.960222C8.08591 0.959218 8.08329 0.958042 8.08125 0.957038L7.94311 0.877669C7.94041 0.876319 7.93263 0.872433 7.92992 0.871065L7.76512 0.798582C7.76311 0.797561 7.76055 0.796293 7.75854 0.79528L7.64752 0.748102C7.64514 0.747299 7.6425 0.746433 7.64017 0.745557L7.61326 0.732923C7.61125 0.73192 7.60877 0.730542 7.60678 0.729521L7.50947 0.688408C7.50707 0.687624 7.50453 0.686666 7.50215 0.685863L7.34395 0.626535C7.33554 0.623707 7.33784 0.624127 7.32945 0.621272C7.31853 0.61755 7.30537 0.613819 7.29192 0.609349C7.28954 0.608547 7.287 0.607589 7.28463 0.606777C7.28225 0.605965 7.27974 0.604943 7.27737 0.604132L7.15873 0.564579C7.15638 0.563767 7.15385 0.562746 7.15148 0.561934L7.12152 0.552356C7.11911 0.551544 7.11652 0.550687 7.11412 0.549856L7.0272 0.528037C7.02476 0.527298 7.02233 0.526185 7.01995 0.525392L6.98309 0.512822C6.98069 0.51201 6.97809 0.511134 6.9757 0.510313C6.97336 0.509501 6.97085 0.508434 6.9685 0.507622L6.95411 0.50224C6.95161 0.501492 6.94915 0.500553 6.94658 0.499878L6.88903 0.488229C6.88662 0.48749 6.88428 0.486241 6.88189 0.485474L6.56587 0.415902C6.48472 0.40751 6.56621 0.40252 6.48642 0.396481C6.47086 0.395305 6.45331 0.397895 6.43764 0.395834C6.38027 0.388254 6.42836 0.392814 6.40042 0.38362C6.36084 0.370594 6.34107 0.383063 6.30275 0.372537C6.20626 0.346038 6.18189 0.365075 6.13735 0.350079L5.91871 0.321545C5.91467 0.320387 5.10624 0.299644 5.06269 0.327283L5.06268 0.327237Z" fill="#FF7272"/>
</svg>
