<svg width="22" height="24" viewBox="0 0 22 24" fill="none" xmlns="http://www.w3.org/2000/svg">
<path d="M0.0404303 0.872752C0.179348 0.458395 0.622447 0.235648 1.03201 0.374566L1.88707 0.664376C2.87387 1.0452 3.58762 1.60327 4.0858 3.18405L20.9739 5.2271C21.3978 5.27739 21.702 5.66301 21.6589 6.09413L20.7775 14.822C20.7367 15.2244 20.399 15.5333 19.999 15.5333L6.98151 15.5429L6.10969 17.4231C5.98035 17.7416 6.0067 17.8997 6.01867 17.9213C6.03304 17.9404 6.16238 18.0195 6.48812 18.0195H20.035C20.2673 18.0195 20.4924 18.1249 20.6409 18.3093L21.4888 19.3512C21.7619 19.6889 21.7163 20.1871 21.381 20.4649C21.2349 20.5847 21.0577 20.6445 20.8852 20.6445C20.6577 20.6445 20.4326 20.5463 20.2793 20.3547L19.6709 19.6027H18.0638V19.9523C18.8661 20.1966 19.4577 20.9439 19.4577 21.8325C19.4577 22.9199 18.5811 23.8037 17.5057 23.8037C16.4279 23.8037 15.5537 22.9199 15.5537 21.8325C15.5537 20.9415 16.1453 20.1966 16.9476 19.9523V19.6027H8.73475V19.9523C9.53711 20.1966 10.1287 20.9439 10.1287 21.8325C10.1287 22.9199 9.25209 23.8037 8.17668 23.8037C7.09887 23.8037 6.22465 22.9199 6.22465 21.8325C6.22465 20.9415 6.81385 20.1966 7.61622 19.9523V19.6027H6.48812C5.4654 19.6027 4.96242 19.1691 4.72051 18.8075C4.47621 18.441 4.26783 17.8015 4.675 16.7908L5.66898 14.6471L2.61759 3.74212C2.27269 2.58048 1.89905 2.36252 1.36015 2.15415L0.533827 1.87392C0.12426 1.735 -0.096092 1.28711 0.0404303 0.872752ZM16.665 21.8325C16.665 22.2972 17.0387 22.6732 17.4985 22.6732C17.9584 22.6732 18.332 22.2972 18.332 21.8325C18.332 21.5858 18.2242 21.3655 18.0566 21.2122V21.3679C18.0566 21.6792 17.8051 21.9355 17.4985 21.9355C17.1896 21.9355 16.9381 21.6816 16.9381 21.3679V21.2098C16.7728 21.3655 16.665 21.5858 16.665 21.8325ZM7.34318 21.8325C7.34318 22.2972 7.71682 22.6732 8.17668 22.6732C8.63655 22.6732 9.00779 22.2972 9.00779 21.8325C9.00779 21.5858 8.90241 21.3655 8.73475 21.2122V21.3679C8.73475 21.6792 8.48326 21.9355 8.17668 21.9355C7.86771 21.9355 7.61622 21.6816 7.61622 21.3679V21.2122C7.45096 21.3655 7.34318 21.5858 7.34318 21.8325ZM7.10366 13.9597L9.46766 13.9573L9.22335 12.5825L6.70128 12.5203L7.10366 13.9597ZM12.5334 9.47126L12.4137 8.06532L9.27844 7.7803L9.54669 9.28444L12.5334 9.47126ZM9.70956 10.2018L9.97542 11.6963L12.7298 11.7634L12.6125 10.3814L9.70956 10.2018ZM12.3346 7.14799L12.2173 5.76121L8.84732 5.35404L9.11318 6.85818L12.3346 7.14799ZM13.2424 7.22942L16.4686 7.51923L16.495 6.27856L13.125 5.87139L13.2424 7.22942ZM13.319 8.14676L13.4364 9.52635L16.4231 9.71078L16.4495 8.42699L13.319 8.14676ZM17.3165 9.76586L19.6972 9.91436L19.817 8.73356L17.3428 8.51082L17.3165 9.76586ZM17.2973 10.6712L17.2734 11.876L19.4937 11.9311L19.6062 10.8149L17.2973 10.6712ZM16.4039 10.6161L13.5154 10.4365L13.6304 11.785L16.3776 11.852L16.4039 10.6161ZM13.707 12.6927L13.8148 13.9549L16.3345 13.9525L16.3608 12.7574L13.707 12.6927ZM12.8065 12.6712L10.1383 12.6041L10.3802 13.9573L12.919 13.9549L12.8065 12.6712ZM6.445 11.6101L9.06048 11.6748L8.78744 10.1467L5.98753 9.97424L6.445 11.6101ZM5.72886 9.04972L8.62457 9.22936L8.35153 7.69887L5.27139 7.42103L5.72886 9.04972ZM5.01272 6.48693L8.18866 6.77435L7.91561 5.24147L4.55046 4.83429L5.01272 6.48693ZM17.3883 6.38873L17.3644 7.60306L19.9104 7.833L20.0254 6.70729L17.3883 6.38873ZM19.4026 12.8316L17.2542 12.7789L17.2303 13.9502L19.2901 13.9478L19.4026 12.8316Z" fill="white"/>
</svg>
