<svg width="25" height="22" viewBox="0 0 25 22" fill="none" xmlns="http://www.w3.org/2000/svg">
<path d="M11.9402 3.32855L12.2937 3.68211L12.6473 3.32855L13.6973 2.27855C14.8296 1.14625 16.3654 0.5 17.9812 0.5C19.5951 0.5 21.1244 1.14426 22.2532 2.35366L22.2591 2.35996L22.2652 2.36605C24.6949 4.79579 24.6949 8.67921 22.2652 11.1089L22.2637 11.1104L12.2937 21.1649L2.3238 11.1104L2.3223 11.1089C-0.107434 8.67921 -0.107434 4.79579 2.3223 2.36605L1.96875 2.0125L2.3223 2.36605L2.4098 2.27855C4.75103 -0.0626734 8.62979 -0.0627096 10.9718 2.36001L10.9717 2.36006L10.9777 2.36605L11.9402 3.32855Z" fill="white" stroke="#007ABE"/>
</svg>
