<svg width="28" height="32" viewBox="0 0 28 32" fill="none" xmlns="http://www.w3.org/2000/svg">
<path d="M17.2812 19.9375C19.892 19.9375 22.3958 18.9004 24.2418 17.0543C26.0879 15.2083 27.125 12.7045 27.125 10.0938C27.125 7.48303 26.0879 4.97923 24.2418 3.13317C22.3958 1.28711 19.892 0.25 17.2812 0.25H7.4375C7.0894 0.25 6.75556 0.388281 6.50942 0.634423C6.26328 0.880564 6.125 1.2144 6.125 1.5625V17.3125H2.1875C1.8394 17.3125 1.50556 17.4508 1.25942 17.6969C1.01328 17.9431 0.875 18.2769 0.875 18.625C0.875 18.9731 1.01328 19.3069 1.25942 19.5531C1.50556 19.7992 1.8394 19.9375 2.1875 19.9375H6.125V22.5625H2.1875C1.8394 22.5625 1.50556 22.7008 1.25942 22.9469C1.01328 23.1931 0.875 23.5269 0.875 23.875C0.875 24.2231 1.01328 24.5569 1.25942 24.8031C1.50556 25.0492 1.8394 25.1875 2.1875 25.1875H6.125V30.4375C6.125 30.7856 6.26328 31.1194 6.50942 31.3656C6.75556 31.6117 7.0894 31.75 7.4375 31.75C7.7856 31.75 8.11944 31.6117 8.36558 31.3656C8.61172 31.1194 8.75 30.7856 8.75 30.4375V25.1875H16.625C16.9731 25.1875 17.3069 25.0492 17.5531 24.8031C17.7992 24.5569 17.9375 24.2231 17.9375 23.875C17.9375 23.5269 17.7992 23.1931 17.5531 22.9469C17.3069 22.7008 16.9731 22.5625 16.625 22.5625H8.75V19.9375H17.2812ZM8.75 2.875H17.2812C19.1958 2.875 21.0319 3.63554 22.3857 4.98932C23.7395 6.3431 24.5 8.17922 24.5 10.0938C24.5 12.0083 23.7395 13.8444 22.3857 15.1982C21.0319 16.552 19.1958 17.3125 17.2812 17.3125H8.75V2.875Z" fill="#4B4B4B"/>
</svg>
