<svg width="27" height="27" viewBox="0 0 27 27" fill="none" xmlns="http://www.w3.org/2000/svg">
<path fill-rule="evenodd" clip-rule="evenodd" d="M1.4349 14.2063C1.03787 7.31793 6.37918 1.77689 12.8268 1.43561C15.8029 1.27805 18.5907 2.17792 20.8652 3.90696C21.1783 4.14495 21.413 4.35922 21.6937 4.5968C22.6865 5.43711 23.6784 6.8455 24.2877 8.04326C24.9952 9.43398 25.473 10.9822 25.5717 12.7877C25.9503 19.7078 20.6649 25.234 14.2105 25.5715C7.26855 25.9345 1.80623 20.6493 1.4349 14.2063V14.2063ZM0.0121845 14.0713C0.0990701 16.157 0.583473 17.8218 1.36754 19.4538C1.80634 20.3672 2.7149 21.7553 3.41032 22.4726C3.87305 22.9498 4.15246 23.2686 4.67675 23.7371C5.66917 24.624 7.0738 25.4819 8.32894 25.9903C12.7387 27.7766 17.7778 27.1685 21.562 24.3585C22.8348 23.4134 23.9819 22.2147 24.8335 20.8808C26.3668 18.4791 27.0912 15.9682 26.9908 12.9269C26.7506 5.6543 20.5545 -0.305871 12.927 0.012165C5.66358 0.315019 -0.306362 6.42427 0.0121845 14.0713Z" fill="#007ABE"/>
<path fill-rule="evenodd" clip-rule="evenodd" d="M11.5808 17.9795C11.4412 17.9044 9.92589 16.3519 9.67786 16.1051C9.03696 15.4676 8.4366 14.854 7.74682 14.2227C7.2322 13.7517 6.72328 14.1411 6.59537 14.5237C6.45341 14.9483 6.92367 15.3394 7.24045 15.6742L9.14739 17.5804C9.53828 17.9727 10.7174 19.1671 11.0659 19.4418C11.5199 19.7996 11.7042 19.9398 12.2507 19.3343C12.5423 19.0113 12.9132 18.6978 13.2301 18.39L17.0219 14.5889C17.1718 14.437 17.3676 14.2649 17.5043 14.1267L21.2654 10.295C21.6883 9.84033 22.0513 9.57066 21.8241 9.12463C21.7314 8.94271 21.5348 8.77644 21.2749 8.72626C20.9628 8.666 20.7992 8.84686 20.6368 8.99084C20.5451 9.07215 20.4691 9.11987 20.3831 9.2101C19.994 9.61822 19.528 9.97081 19.1668 10.3897C18.6935 10.9386 15.9712 13.5881 15.3729 14.1886C14.1047 15.4615 12.8487 16.7178 11.5809 17.9795H11.5808Z" fill="#007ABE"/>
</svg>
