<svg width="10" height="11" viewBox="0 0 10 11" fill="none" xmlns="http://www.w3.org/2000/svg">
<path d="M5.99376 6.35575C6.82338 6.35575 7.61902 6.05059 8.20565 5.50742C8.79228 4.96424 9.12185 4.22754 9.12185 3.45937C9.12185 2.6912 8.79228 1.95449 8.20565 1.41132C7.61902 0.868142 6.82338 0.562988 5.99376 0.562988H2.86567C2.75505 0.562988 2.64897 0.603675 2.57075 0.676099C2.49253 0.748523 2.44859 0.84675 2.44859 0.949172V5.58338H1.19735C1.08674 5.58338 0.98065 5.62407 0.902433 5.69649C0.824216 5.76891 0.780273 5.86714 0.780273 5.96956C0.780273 6.07199 0.824216 6.17021 0.902433 6.24264C0.98065 6.31506 1.08674 6.35575 1.19735 6.35575H2.44859V7.12812H1.19735C1.08674 7.12812 0.98065 7.1688 0.902433 7.24123C0.824216 7.31365 0.780273 7.41188 0.780273 7.5143C0.780273 7.61672 0.824216 7.71495 0.902433 7.78737C0.98065 7.8598 1.08674 7.90048 1.19735 7.90048H2.44859V9.44522C2.44859 9.54764 2.49253 9.64587 2.57075 9.71829C2.64897 9.79072 2.75505 9.8314 2.86567 9.8314C2.97628 9.8314 3.08237 9.79072 3.16059 9.71829C3.2388 9.64587 3.28275 9.54764 3.28275 9.44522V7.90048H5.78522C5.89583 7.90048 6.00192 7.8598 6.08014 7.78737C6.15835 7.71495 6.2023 7.61672 6.2023 7.5143C6.2023 7.41188 6.15835 7.31365 6.08014 7.24123C6.00192 7.1688 5.89583 7.12812 5.78522 7.12812H3.28275V6.35575H5.99376ZM3.28275 1.33536H5.99376C6.60215 1.33536 7.18562 1.55914 7.61581 1.95746C8.04601 2.35579 8.28769 2.89605 8.28769 3.45937C8.28769 4.02269 8.04601 4.56294 7.61581 4.96127C7.18562 5.3596 6.60215 5.58338 5.99376 5.58338H3.28275V1.33536Z" fill="#007ABE" stroke="#007ABE" stroke-width="0.75"/>
</svg>
