<!-- icon666.com - MILLIONS vector ICONS FREE --><svg id="Capa_1" enable-background="new 0 0 512 512" viewBox="0 0 512 512" xmlns="http://www.w3.org/2000/svg"><g><path d="m418.237 279.163h-228.897c-7.527-4.146-16.455-7.24-26.716-9.233v-176.011c3.097-.5 5.949-2.052 8.033-4.458 2.56-2.954 3.708-6.867 3.15-10.736l-9.684-67.181c-.948-6.581-6.678-11.544-13.327-11.544h-35.456c-6.649 0-12.378 4.963-13.327 11.543l-9.683 67.181c-.558 3.869.59 7.782 3.149 10.737 2.084 2.407 4.937 3.958 8.034 4.458v176.011c-14.937 2.901-27.071 8.118-36.13 15.55-11.834 9.707-18.09 23.214-18.09 39.061 0 7.276 1.281 14.739 3.809 22.186.668 1.964.242 4.128-1.111 5.647-18.66 20.958-28.385 47.979-27.384 76.087.963 26.916 11.776 47.893 32.139 62.346 17.404 12.354 41.122 19.397 70.493 20.935 3.291.173 6.534.259 9.733.259 25.179-.001 47.389-5.322 64.732-15.401h216.531c7.278 0 13.2-5.923 13.2-13.203v-88.542c0-4.143-3.357-7.5-7.5-7.5s-7.5 3.357-7.5 7.5v86.745h-53.585v-118.06h2.161c9.231 0 16.741-7.51 16.741-16.741v-7.578h34.683v20.634c0 4.143 3.357 7.5 7.5 7.5s7.5-3.357 7.5-7.5v-67.489c.002-7.281-5.92-13.203-13.198-13.203zm-89.288 45.06h-30.449v-30.06h30.449zm-83.256 0h-28.857c-.061-11.434-3.397-21.634-9.737-30.06h38.594zm-32.657 22.5c.849-2.5 1.544-5.003 2.111-7.5h30.546v7.575c0 9.231 7.511 16.741 16.742 16.741h2.161v118.06h-43.94c13.716-14.75 20.948-34.381 20.948-57.106 0-26.517-9.687-52.054-27.272-71.899-1.466-1.659-1.963-3.907-1.296-5.871zm49.399 1.816c-.961 0-1.742-.781-1.742-1.741v-52.635h22.807v37.463c0 .032-.005.064-.005.097s.004.064.005.097v14.979c0 .96-.781 1.741-1.742 1.741h-19.323zm-143.921-254.429h29.11v244.127c-9.556-1.828-19.573-1.828-29.11 0zm-1.843-79.11h32.795l9.241 64.11h-51.276zm11.355 481.762c-71.184-3.727-87.377-39.491-88.428-68.836-.863-24.229 7.517-47.518 23.597-65.577 4.938-5.547 6.512-13.384 4.11-20.448-1.999-5.887-3.012-11.727-3.012-17.359 0-24.488 19.725-34.939 39.22-39.289v58.649c0 3.289 1.496 6.321 4.103 8.318 2.624 2.01 5.965 2.667 9.186 1.799 18.696-5.085 31.92.379 35.352.379 2.266 0 4.48-.736 6.339-2.151 2.625-1.999 4.131-5.04 4.131-8.345v-58.649c7.291 1.626 14.606 4.113 20.917 7.862.091.054.18.109.272.161 18.011 10.257 21.583 29.29 15.02 48.623-2.395 7.046-.761 14.951 4.268 20.638 15.156 17.105 23.503 39.108 23.503 61.957 0 20.576-6.594 37.266-19.598 49.605-19.802 18.786-51.918 24.089-78.98 22.663zm219.826-15.163h-68.256v-118.06h2.161c9.231 0 16.742-7.51 16.742-16.741v-7.575h30.449v7.575c0 9.231 7.51 16.741 16.741 16.741h2.162v118.06zm17.161-133.06h-19.323c-.96 0-1.741-.781-1.741-1.741v-52.635h22.806v52.635c-.001.96-.782 1.741-1.742 1.741zm16.741-24.319v-30.057h34.683v30.057z"></path><path d="m133.068 380.46c-18.455 0-33.468 15.014-33.468 33.468 0 18.455 15.014 33.469 33.468 33.469s33.469-15.014 33.469-33.469c0-18.454-15.014-33.468-33.469-33.468zm0 51.936c-10.184 0-18.468-8.285-18.468-18.469s8.285-18.468 18.468-18.468 18.469 8.284 18.469 18.468-8.285 18.469-18.469 18.469z"></path><path d="m258.173 118.999c16.745 0 30.368-13.623 30.368-30.368v-66.028l18.862 10.42c3.629 2.006 8.189.688 10.191-2.938 2.003-3.626.688-8.188-2.938-10.191l-23.442-12.95c-3.729-2.061-8.146-1.999-11.814.167-3.669 2.164-5.859 6-5.859 10.26v45.084c-4.512-2.659-9.763-4.191-15.368-4.191-16.745 0-30.369 13.623-30.369 30.368s13.624 30.367 30.369 30.367zm0-45.736c8.474 0 15.368 6.895 15.368 15.368s-6.895 15.368-15.368 15.368c-8.474 0-15.369-6.895-15.369-15.368s6.895-15.368 15.369-15.368z"></path><path d="m483.874 94.1c-3.584-6.207-9.37-10.647-16.293-12.502-6.921-1.855-14.154-.902-20.365 2.683-26.582 15.366-113.468 65.604-115.453 66.916l-32.675 21.577c-2.868 1.894-6.268 2.632-9.327 2.026-9.58-1.897-19.324.107-27.428 5.651-14.738 10.078-19.866 29.747-11.928 45.75 4.493 9.056 12.277 15.647 21.919 18.56 3.399 1.027 6.91 1.533 10.411 1.533 6.293 0 12.556-1.636 18.08-4.825 7.567-4.369 13.287-11.326 16.104-19.588 1.014-2.97 3.268-5.509 6.183-6.967 0 0 39.792-19.983 41.851-21.172l109.1-62.988c12.812-7.398 17.217-23.841 9.821-36.654zm-17.322 23.664-109.066 62.969c-1.847 1.029-26.19 13.286-41.102 20.771-6.501 3.253-11.353 8.77-13.661 15.534-1.646 4.825-4.987 8.889-9.408 11.441-5.1 2.943-11.014 3.625-16.653 1.924-5.635-1.702-10.188-5.562-12.819-10.867-4.634-9.342-1.643-20.821 6.958-26.703 3.584-2.451 7.709-3.725 11.924-3.725 1.37 0 2.749.135 4.123.407 6.994 1.385 14.282-.114 20.506-4.224l32.606-21.532c3.636-2.226 83.98-48.697 114.76-66.49 2.737-1.58 5.927-1.999 8.979-1.183 3.054.818 5.605 2.776 7.186 5.514 3.26 5.65 1.317 12.901-4.333 16.164z"></path></g></svg>