<!-- icon666.com - MILLIONS vector ICONS FREE --><svg id="Layer_1" enable-background="new 0 0 100 100" viewBox="0 0 100 100" xmlns="http://www.w3.org/2000/svg"><g><path d="m39.5 82.1c0 .3.3.6.6.6h.9v.9c0 .3.3.6.6.6s.6-.3.6-.6v-.9h.9c.3 0 .6-.3.6-.6s-.3-.6-.6-.6h-.9v-.9c0-.3-.3-.6-.6-.6s-.6.3-.6.6v.9h-.9c-.4 0-.6.3-.6.6z"></path><path d="m91.4 44.9h1.1v1.1c0 .4.3.7.7.8.4 0 .7-.3.8-.7v-1.1h1.1c.4 0 .7-.3.8-.7 0-.4-.3-.7-.7-.8h-1.1v-1.1c0-.4-.3-.7-.7-.8-.4 0-.7.3-.8.7v1.1h-1.1c-.4 0-.7.3-.8.7 0 .4.3.7.7.8z"></path><path d="m10.3 23.6c-.4 0-.7.3-.8.7v1.1h-1.1c-.4 0-.7.3-.8.7 0 .4.3.7.7.8h1.1v1.1c0 .4.3.7.7.8.4 0 .7-.3.8-.7v-1.1h1.1c.4 0 .7-.3.8-.7 0-.4-.3-.7-.7-.8h-1.1v-1.1c0-.4-.3-.8-.7-.8z"></path><path d="m90.9 19.1c.2.4.6.6 1 .4l1-.4.4 1c.2.4.6.5 1 .4.4-.2.6-.6.4-1l-.4-1 1-.4c.4-.2.5-.6.4-1-.2-.4-.6-.5-1-.4l-1 .4-.4-1c-.2-.4-.6-.5-1-.4-.4.2-.5.6-.4 1l.4 1-1 .4c-.4.2-.6.6-.4 1z"></path><path d="m5 75.2c-.6 0-1 .4-1 1s.4 1 1 1h2.5c.6 0 1-.4 1-1s-.4-1-1-1z"></path><path d="m13.2 75.3c-.6 0-1 .4-1 1s.4 1 1 1h43.2.2.2 32.4c.6 0 1-.4 1-1s-.4-1-1-1h-29c.4-.7.7-1.4.7-2.3s0-11 0-11.1h14.1v1.6c-.7-.4-1.5-.7-2.3-.7-2.4 0-4.3 1.9-4.3 4.3s1.9 4.3 4.3 4.3c2.3 0 4.1-1.8 4.3-4 0-.1 0-.1 0-.2v-5.4h3.2c1.7 0 3-1.3 3-3v-36c0-1.7-1.3-3-3-3h-58c-1.7 0-3 1.3-3 3v36.1c0 1.7 1.3 3 3 3h36.8v7.5c-.7-.4-1.5-.7-2.3-.7-2.4 0-4.3 1.9-4.3 4.3 0 .8.3 1.6.7 2.3zm59.6-5.9c-1.3 0-2.3-1-2.3-2.3s1-2.3 2.3-2.3 2.3 1 2.3 2.3-1 2.3-2.3 2.3zm-39.2-25.5h-12.3v-6.1h12.3c0 .1 0 6.2 0 6.1zm2-5.4 17-6.1v10.7c-.8-.6-1.8-1-2.9-1-1.5 0-2.8.7-3.7 1.7h-10.4zm14.1 5.6c1.6 0 2.9 1.3 2.9 2.9s-1.3 2.9-2.9 2.9-2.9-1.3-2.9-2.9 1.3-2.9 2.9-2.9zm4.9-6.3h26.7v6.1h-26.7zm26.7-2h-26.7v-4.8-1.4h26.7zm-28.7-5.5-17 6.1v-4.6c0-.2.1-.4.4-.5l15.9-5.7h.2c.1 0 .3.1.3.1.1.1.2.2.2.4zm-19 1.5v3.9h-12.3v-6.1h13.6c-.8.5-1.3 1.3-1.3 2.2zm-12.3 14.1h12.3v4.2c-.8-.6-1.8-1-2.9-1-2 0-3.7 1.2-4.5 2.9h-5v-6.1zm9.4 5.2c1.6 0 2.9 1.3 2.9 2.9s-1.3 2.9-2.9 2.9-2.9-1.3-2.9-2.9 1.3-2.9 2.9-2.9zm4.9-5.2h9.4c-.1.4-.2.8-.2 1.2 0 2.7 2.2 4.9 4.9 4.9 2.6 0 4.7-2 4.9-4.5 0-.1 0-.1 0-.2v-1.3h26.7v6h-4.2v-2.5c0-.8-.4-1.5-1-1.9s-1.4-.5-2.1-.3l-13.1 4.7h-25.3zm39.1 3.3h.1c.1 0 .1 0 .2.1 0 0 .1.1.1.3v3.4l-14.1 5v-3.6c0-.1.1-.2.2-.3 7-2.6 6.3-2.4 13.5-4.9zm-13.3 10.7 13.7-4.9v4.9zm18.9 0h-3.2v-5.9h4.2v4.9c0 .5-.5 1-1 1zm-58-38.1h58c.6 0 1 .4 1 1v4.9h-26.7v-1.5c0-.8-.4-1.6-1.1-2.1s-1.5-.6-2.3-.3l-10.9 3.9h-19v-4.9c0-.6.4-1 1-1zm0 38.1c-.6 0-1-.4-1-1v-4.9h4.6c0 2.7 2.2 4.9 4.9 4.9s4.9-2.2 4.9-4.9h23.3v.3c0 .2 0 5.7 0 5.6zm32.1 13.1c0-1.3 1-2.3 2.3-2.3s2.3 1 2.3 2.3c0 1.2-.9 2.2-2.1 2.3h-.4c-1.2-.1-2.1-1.1-2.1-2.3z"></path><path d="m94.3 75.3c-.6 0-1 .4-1 1s.4 1 1 1h.7c.6 0 1-.4 1-1s-.4-1-1-1z"></path></g></svg>