<svg width="17" height="20" viewBox="0 0 17 20" fill="none" xmlns="http://www.w3.org/2000/svg">
<path d="M10.375 12.25C11.8668 12.25 13.2976 11.6574 14.3525 10.6025C15.4074 9.54758 16 8.11684 16 6.625C16 5.13316 15.4074 3.70242 14.3525 2.64752C13.2976 1.59263 11.8668 1 10.375 1H4.75C4.55109 1 4.36032 1.07902 4.21967 1.21967C4.07902 1.36032 4 1.55109 4 1.75V10.75H1.75C1.55109 10.75 1.36032 10.829 1.21967 10.9697C1.07902 11.1103 1 11.3011 1 11.5C1 11.6989 1.07902 11.8897 1.21967 12.0303C1.36032 12.171 1.55109 12.25 1.75 12.25H4V13.75H1.75C1.55109 13.75 1.36032 13.829 1.21967 13.9697C1.07902 14.1103 1 14.3011 1 14.5C1 14.6989 1.07902 14.8897 1.21967 15.0303C1.36032 15.171 1.55109 15.25 1.75 15.25H4V18.25C4 18.4489 4.07902 18.6397 4.21967 18.7803C4.36032 18.921 4.55109 19 4.75 19C4.94891 19 5.13968 18.921 5.28033 18.7803C5.42098 18.6397 5.5 18.4489 5.5 18.25V15.25H10C10.1989 15.25 10.3897 15.171 10.5303 15.0303C10.671 14.8897 10.75 14.6989 10.75 14.5C10.75 14.3011 10.671 14.1103 10.5303 13.9697C10.3897 13.829 10.1989 13.75 10 13.75H5.5V12.25H10.375ZM5.5 2.5H10.375C11.469 2.5 12.5182 2.9346 13.2918 3.70818C14.0654 4.48177 14.5 5.53098 14.5 6.625C14.5 7.71902 14.0654 8.76823 13.2918 9.54182C12.5182 10.3154 11.469 10.75 10.375 10.75H5.5V2.5Z" fill="#4B4B4B" stroke="#4B4B4B" stroke-width="0.5"/>
</svg>
