<!-- icon666.com - MILLIONS vector ICONS FREE --><svg id="Layer_1" enable-background="new 0 0 512 512" viewBox="0 0 512 512" xmlns="http://www.w3.org/2000/svg"><g><path d="m53.4 250h153.3v15h-153.3z" transform="matrix(.707 -.707 .707 .707 -143.951 167.374)"></path><path d="m101.5 251.3c5.8 0 11.5-2.2 15.9-6.6 8.8-8.8 8.8-23 0-31.8s-23-8.8-31.8 0-8.8 23 0 31.8c4.3 4.4 10.1 6.6 15.9 6.6zm-5.3-27.8c1.5-1.5 3.4-2.2 5.3-2.2s3.8.7 5.3 2.2c2.9 2.9 2.9 7.7 0 10.6s-7.7 2.9-10.6 0c-3-2.9-3-7.6 0-10.6z"></path><path d="m158.7 263.6c-6 0-11.7 2.3-15.9 6.6-4.2 4.2-6.6 9.9-6.6 15.9s2.3 11.7 6.6 15.9c4.3 4.3 9.9 6.6 15.9 6.6s11.7-2.3 15.9-6.6 6.6-9.9 6.6-15.9-2.3-11.7-6.6-15.9c-4.3-4.3-9.9-6.6-15.9-6.6zm5.3 27.8c-1.4 1.4-3.3 2.2-5.3 2.2s-3.9-.8-5.3-2.2-2.2-3.3-2.2-5.3.8-3.9 2.2-5.3c1.4-1.4 3.3-2.2 5.3-2.2s3.9.8 5.3 2.2 2.2 3.3 2.2 5.3-.8 3.8-2.2 5.3z"></path><path d="m442.1 271.1h15.3l-3-15h-15.3z"></path><path d="m316.4 434.6h15v15h-15z"></path><path d="m460.5 286.1h-15.3l41.8 203.4h-324l8.2-39.9h130.3v-15h-205.4l11-53.7c6.8-.1 13.5-2.5 18.9-7l18.4-15.4c3.6-3 8.3-4.2 12.9-3.2l23.5 4.8c9.1 1.9 18.4-.5 25.5-6.4s11.1-14.7 10.9-24l-.5-24c-.1-4.7 1.9-9.1 5.5-12.1l18.4-15.4c7.1-5.9 11.1-14.7 10.9-24s-4.5-17.8-11.9-23.5l-19.1-14.6c-3.7-2.8-5.9-7.2-6-11.9l-.5-24c-.2-9.3-4.5-17.8-11.9-23.5-7.4-5.6-16.8-7.6-25.8-5.3l-23.3 5.8h-.1l18.2-88.2h25.2v27.5h-12.1v15h39.1v-15h-12.1v-27.5h93.5v27.5h-12.1v15h39.1v-15h-12.1v-27.5h25.2l75 365.6h-73.6v15h82.8l7.3-9-65-316.6h40.7l24 117.1h15.3l-25.9-126.1-7.3-6h-49.5l-10-48.9-7.3-6h-31.9c-3.7-26.2-26.2-46.5-53.5-46.5h-15.5c-27.2 0-49.8 20.3-53.5 46.5h-31.9l-7.3 6-19.2 93.6-17.5-13.3c-7.4-5.6-16.8-7.6-25.8-5.3s-16.4 8.4-20.2 16.9l-10 21.6c-1.9 4.3-5.7 7.4-10.2 8.5l-23.3 5.9c-9 2.3-16.4 8.4-20.2 16.9s-3.6 18 .6 26.3l10.9 21.4c2.1 4.2 2.2 9 .3 13.3l-10.1 21.8c-3.8 8.5-3.6 18 .6 26.3s11.8 14.1 20.9 16l23.5 4.8c4.6.9 8.5 3.9 10.6 8.1l10.9 21.4c2.9 5.7 7.5 10.3 13 13.1l-12.9 63.1 7.3 9h68.9l-9.4 45.9 7.3 9h342.4l7.3-9zm-210.2-263.6h15.5c18.9 0 34.8 13.6 38.3 31.5h-92.1c3.6-17.9 19.4-31.5 38.3-31.5zm-157.4 335-10.9-21.4c-4.2-8.3-11.8-14.1-20.9-16l-23.5-4.8c-4.6-.9-8.5-3.9-10.6-8.1s-2.2-9-.3-13.3l9.9-21.8c3.8-8.5 3.6-18-.6-26.3l-10.9-21.4c-2.1-4.2-2.2-9-.3-13.3s5.7-7.4 10.2-8.5l23.3-5.8c9-2.3 16.4-8.4 20.2-16.9l9.9-21.8c1.9-4.3 5.7-7.4 10.2-8.5 1.2-.3 2.5-.5 3.8-.5 3.3 0 6.6 1.1 9.3 3.1l19.1 14.6c7.4 5.6 16.8 7.6 25.8 5.3l23.3-5.8c4.6-1.1 9.3-.2 13 2.7 3.7 2.8 5.9 7.2 6 11.9l.5 24c.2 9.3 4.5 17.8 11.9 23.5l19.1 14.6c3.7 2.8 5.9 7.2 6 11.9s-1.9 9.1-5.5 12.1l-18.4 15.4c-7.1 5.9-11.1 14.7-10.9 24l.5 24c.1 4.7-1.9 9.1-5.5 12.1s-8.3 4.2-12.9 3.2l-23.5-4.8c-9.1-1.9-18.4.5-25.5 6.4l-18.4 15.4c-3.6 3-8.3 4.2-12.9 3.2-4.5-1.3-8.4-4.2-10.5-8.4z"></path></g></svg>