<!-- icon666.com - MILLIONS vector ICONS FREE --><svg id="Layer_3" enable-background="new 0 0 60 60" viewBox="0 0 60 60" xmlns="http://www.w3.org/2000/svg"><path d="m30 14c-8.82 0-16 7.18-16 16s7.18 16 16 16 16-7.18 16-16-7.18-16-16-16zm0 30c-7.72 0-14-6.28-14-14s6.28-14 14-14 14 6.28 14 14-6.28 14-14 14z"></path><path d="m53.16 27.01-2.46-.41c-.52-3.19-1.78-6.22-3.67-8.84l1.45-2.03c.28-.4.24-.94-.11-1.29l-2.83-2.83c-.35-.35-.89-.39-1.29-.11l-2.03 1.45c-2.63-1.89-5.66-3.15-8.84-3.67l-.41-2.46c-.06-.47-.48-.82-.97-.82h-4c-.49 0-.91.35-.99.84l-.41 2.45c-3.19.52-6.22 1.78-8.84 3.67l-2.03-1.45c-.4-.28-.94-.24-1.29.11l-2.83 2.83c-.35.35-.39.89-.11 1.29l1.45 2.03c-1.89 2.63-3.15 5.66-3.67 8.84l-2.46.41c-.47.07-.82.49-.82.98v4c0 .49.35.91.84.99l2.46.41c.52 3.19 1.78 6.22 3.67 8.84l-1.45 2.03c-.28.4-.24.94.11 1.29l2.83 2.83c.35.35.89.39 1.29.11l2.03-1.45c2.63 1.89 5.66 3.15 8.84 3.67l.41 2.46c.06.47.48.82.97.82h4c.49 0 .91-.35.99-.84l.41-2.46c3.19-.52 6.22-1.78 8.84-3.67l2.03 1.45c.4.28.94.24 1.29-.11l2.83-2.83c.35-.35.39-.89.11-1.29l-1.45-2.03c1.89-2.63 3.15-5.66 3.67-8.84l2.46-.41c.47-.06.82-.48.82-.97v-4c0-.49-.35-.91-.84-.99zm-1.16 4.14-2.34.39c-.44.07-.77.42-.83.86-.42 3.35-1.74 6.53-3.82 9.21-.27.35-.28.83-.02 1.19l1.38 1.93-1.63 1.63-1.93-1.38c-.36-.26-.84-.25-1.19.02-2.68 2.07-5.86 3.39-9.21 3.82-.44.06-.79.39-.86.83l-.4 2.35h-2.31l-.39-2.34c-.07-.44-.42-.77-.86-.83-3.35-.42-6.53-1.74-9.21-3.82-.35-.27-.83-.28-1.19-.02l-1.93 1.38-1.63-1.63 1.38-1.93c.26-.36.25-.84-.02-1.19-2.07-2.68-3.39-5.86-3.82-9.21-.06-.44-.39-.79-.83-.86l-2.34-.4v-2.31l2.34-.39c.44-.07.77-.42.83-.86.42-3.35 1.74-6.53 3.82-9.21.27-.35.28-.83.02-1.19l-1.38-1.93 1.63-1.63 1.93 1.38c.36.26.85.25 1.19-.02 2.68-2.07 5.86-3.39 9.21-3.82.44-.06.79-.39.86-.83l.4-2.34h2.31l.39 2.34c.07.44.42.77.86.83 3.35.42 6.53 1.74 9.21 3.82.35.27.83.28 1.19.02l1.93-1.38 1.63 1.63-1.38 1.93c-.26.36-.25.84.02 1.19 2.07 2.68 3.39 5.86 3.82 9.21.06.44.39.79.83.86l2.34.4z"></path><path d="m34.09 21.7c-.06.05-.12.12-.17.18-1.45 2.06-3.62 2.12-3.92 2.12h-4c-1.32 0-2.58.52-3.54 1.47-.94.95-1.46 2.21-1.46 3.53 0 2.24 1.49 4.11 3.52 4.75l2.61 4.73c.18.33.52.52.87.52.16 0 .33-.04.48-.12.48-.27.66-.88.39-1.36l-1.93-3.52h3.12c.2 0 2.02.04 3.44 1.6.15.17.29.34.43.53.05.06.1.12.16.17.53.45 1.21.7 1.91.7 1.65 0 3-1.35 3-3v-10c0-.81-.32-1.57-.87-2.11-1.05-1.07-2.9-1.16-4.04-.19zm-11.09 7.3c0-.8.31-1.55.87-2.12.58-.57 1.33-.88 2.13-.88h1v6h-1c-1.65 0-3-1.35-3-3zm14 5c0 .55-.45 1-1 1-.2 0-.38-.06-.54-.16-.15-.21-.31-.4-.51-.61-1.94-2.12-4.41-2.23-4.95-2.23h-1v-6h1.06c.56 0 3.42-.14 5.41-2.84.36-.25.9-.21 1.24.15.19.18.29.42.29.69z"></path></svg>