<!-- icon666.com - MILLIONS vector ICONS FREE --><svg id="Capa_1" enable-background="new 0 0 511.826 511.826" viewBox="0 0 511.826 511.826" xmlns="http://www.w3.org/2000/svg"><g><path d="m423.686 144.698h-41.85v-38.998l38.647-21.267c3.258-1.794 5.281-5.218 5.281-8.937 0-3.718-2.023-7.142-5.282-8.937l-54.931-30.228c-3.631-1.995-8.19-.673-10.188 2.955-1.996 3.629-.674 8.19 2.955 10.188l47.289 26.021c-11.7 6.438-49.279 27.117-61.779 33.996l-41.767-39.447c-3.011-2.844-7.758-2.71-10.602.303-2.845 3.011-2.709 7.758.303 10.602l38.264 36.138-33.149 18.242c-7.052-3.639-34.262-19.213-108.631-59.849l108.666-59.798 34.774 19.136c3.628 1.997 8.189.672 10.187-2.955 1.996-3.63.674-8.19-2.955-10.188l-37.09-20.408c-3.074-1.691-6.748-1.692-9.834.001l-118.652 65.294c-3.258 1.794-5.281 5.218-5.281 8.936 0 3.719 2.023 7.143 5.306 8.949 14.622 7.98 27.407 14.983 38.622 21.144v39.107h-38.693c-19.63 0-35.601 15.97-35.601 35.6v176.438c0 6.981-5.312 13.713-14.713 13.68-38.151.141-69.746 31.277-70.431 69.408-.348 19.328 6.968 37.509 20.597 51.193 13.391 13.443 31.141 20.811 50.084 20.811.34 0 .682-.003 1.022-.008 18.535-.259 36.039-7.941 49.289-21.633 13.159-13.599 20.407-31.325 20.407-49.914v-70.074c0-4.143-3.357-7.5-7.5-7.5s-7.5 3.357-7.5 7.5v70.074c0 30.236-25.144 56.132-54.905 56.549-.27.004-.537.006-.807.006-14.926 0-28.914-5.805-39.463-16.396-10.737-10.781-16.501-25.107-16.227-40.339.525-29.245 24.428-54.675 56.291-54.675 7.715-.001 14.956-2.977 20.409-8.392 5.446-5.409 8.445-12.615 8.445-20.291v-176.438c0-11.358 9.241-20.6 20.601-20.6h38.693v25.744c0 7.915 4.729 15.009 12.05 18.073 48.357 20.237 97.392 20.237 145.749 0 7.319-3.063 12.049-10.158 12.049-18.073v-25.744h41.85c11.359 0 20.601 9.241 20.601 20.6v259.975c0 30.237-25.145 56.133-54.907 56.549-15.198.25-29.528-5.607-40.268-16.39-10.738-10.781-16.502-25.108-16.228-40.341.541-30.038 25.434-54.565 55.462-54.676.402-.078 11.763 1.024 21.24-8.391 5.445-5.408 8.444-12.614 8.444-20.29v-106.713c0-8.035-6.537-14.572-14.573-14.572h-209.933c-8.035 0-14.572 6.537-14.572 14.572v90.189c0 4.143 3.357 7.5 7.5 7.5s7.5-3.357 7.5-7.5v-89.762h209.08v106.286c0 3.65-1.426 7.076-4.015 9.647-4.61 4.579-10.388 3.984-10.697 4.033-38.149.14-69.746 31.275-70.433 69.406-.348 19.329 6.968 37.511 20.598 51.195 13.39 13.443 31.14 20.811 50.082 20.811.34 0 .682-.003 1.022-.008 18.535-.259 36.04-7.941 49.29-21.632 13.16-13.599 20.408-31.326 20.408-49.915v-259.973c.001-19.63-15.97-35.599-35.6-35.599zm-56.849 40.744c0 1.852-1.115 3.514-2.84 4.235-44.513 18.631-89.652 18.631-134.167 0-1.726-.722-2.841-2.385-2.841-4.235v-71.598c43.245 23.831 58.04 32.333 63.795 35.211 3.888 1.943 7.26 3.043 11.16.607l33.212-18.275v42.22c0 4.143 3.357 7.5 7.5 7.5s7.5-3.357 7.5-7.5v-50.474l16.681-9.179z"></path></g></svg>