<svg width="43" height="43" viewBox="0 0 43 43" fill="none" xmlns="http://www.w3.org/2000/svg">
<path fill-rule="evenodd" clip-rule="evenodd" d="M40.7522 31.0673C40.7522 33.3959 40.5749 35.0627 39.1408 37.0135C38.3587 38.0776 38.1453 38.2927 37.0908 39.0771C34.0103 41.3684 29.4078 41.298 26.3882 38.9262C22.0708 35.535 21.7284 29.2824 25.5167 25.494C29.2573 21.7534 35.4075 21.9999 38.9058 26.3128C39.6844 27.2726 40.7522 29.3881 40.7522 31.0673ZM1.72102 9.25584C2.20668 9.36899 4.28402 10.3309 4.88062 10.5925C5.34566 10.7964 7.81962 11.9086 8.13059 11.9345C8.13059 13.0824 8.13059 14.2304 8.13059 15.3784C8.13059 16.5115 7.86454 17.9614 8.99157 17.9614C10.0214 17.9614 9.85263 16.8754 9.85259 15.8567C9.85247 14.8363 9.85255 13.8158 9.85255 12.7954C10.7117 12.9956 15.7808 15.434 16.2621 15.4741V32.1197L3.57135 26.6341C2.93997 26.3534 2.28917 26.1064 1.72106 25.8058V9.25584H1.72102ZM17.2187 14.039L12.5633 12.0936C12.1596 11.9048 11.2615 11.586 11.0962 11.3604L23.6609 5.94021C24.1239 5.73443 24.463 5.56462 24.9271 5.37854C25.3858 5.19461 25.3713 5.26375 26.1792 5.65254L31.2814 7.82084C30.989 8.21997 25.2291 10.526 24.2979 10.9778C23.7669 11.2355 23.0983 11.5096 22.5622 11.7293L17.2187 14.039H17.2187ZM3.06035 8.01219L16.8241 1.86728C17.2843 1.67616 17.1224 1.7017 18.047 2.11366L21.8428 3.77084C22.2407 3.95688 22.7333 4.1842 23.1499 4.28128C23.1307 4.29467 23.0984 4.28759 23.089 4.31597L22.9012 4.41524C22.7652 4.48243 22.6856 4.51728 22.5769 4.56931C22.3683 4.66927 22.2194 4.72458 21.9754 4.82881L9.44334 10.2845C8.96291 10.5011 9.04364 10.5979 8.1626 10.1805C7.76782 9.99353 3.43023 8.043 3.06031 8.01223L3.06035 8.01219ZM-0.000936597 7.72516V26.3798C-0.000936597 27.1058 0.876389 27.2769 1.75315 27.687C2.50994 28.0408 3.19855 28.2906 3.95342 28.6436C4.71021 28.9974 5.39882 29.2472 6.15373 29.6002C8.18922 30.552 10.7297 31.5234 12.7546 32.4702C13.5114 32.8241 14.1999 33.0738 14.9548 33.4269C15.3411 33.6075 16.8952 34.32 17.2187 34.32C17.3292 34.32 20.9305 32.76 21.2366 32.598C21.2366 33.8237 21.8752 35.6813 22.2867 36.5224C23.0266 38.0347 23.8982 38.9701 25.0877 40.0353L26.5608 41.0495C29.5515 42.6774 33.2284 43.0224 36.3199 41.4632C37.3446 40.9463 38.9198 39.9902 39.6448 39.0483C39.7854 38.8655 39.8173 38.8521 39.9627 38.6966C41.7071 36.831 42.4741 34.1115 42.4741 31.4501C42.4741 29.3507 41.4482 26.6177 40.0579 25.0651C39.3148 24.2354 39.7036 24.55 38.7728 23.7673C35.0363 20.6257 29.9089 20.334 25.9047 23.0121C24.396 24.0211 23.3095 25.2377 22.4157 26.8894C21.5107 28.5619 21.3019 30.5757 21.2366 30.6848C21.1093 30.8972 18.2905 32.0942 17.984 32.1197V15.5697L28.9162 10.8131C29.3748 10.6166 32.2255 9.28877 32.6206 9.25592C32.6206 9.99469 32.4767 17.1311 32.7368 17.6539C33.1628 18.5099 34.3426 18.1531 34.3426 17.1961V7.91663C34.3426 7.13523 33.4015 6.94982 32.5941 6.6038L21.6602 1.84877C15.7305 -0.634293 18.5321 -0.584536 12.736 1.80773C12.0391 2.09536 11.3012 2.4495 10.6042 2.73713C9.85083 3.0481 9.11354 3.40343 8.40427 3.69414C6.9279 4.29926 5.5586 4.95702 4.0716 5.57968L0.860962 6.96094C0.561979 7.09162 -0.000976562 7.31795 -0.000976562 7.72532L-0.000936597 7.72516Z" fill="#59B857" fill-opacity="0.8"/>
<path fill-rule="evenodd" clip-rule="evenodd" d="M30.2293 33.8415C29.5247 33.3697 27.7156 30.9716 26.9767 30.9716C26.5039 30.9716 26.1157 31.3597 26.1157 31.8326C26.1157 32.3466 26.6571 32.7089 26.9528 33.0045C27.4142 33.4657 29.69 35.9462 30.1337 35.9462C30.7172 35.9462 30.9456 35.5664 31.2577 35.2527L36.8062 29.704C37.0956 29.4149 37.5955 29.088 37.5955 28.58C37.5955 28.1071 37.2073 27.719 36.7345 27.719C36.2668 27.719 36.0583 28.0569 35.8016 28.3167L30.2293 33.8415V33.8415Z" fill="#59B857" fill-opacity="0.8"/>
</svg>
