<svg width="42" height="44" viewBox="0 0 42 44" fill="none" xmlns="http://www.w3.org/2000/svg">
<path fill-rule="evenodd" clip-rule="evenodd" d="M39.3044 15.7985C39.3044 16.4616 37.8325 18.0347 37.3823 18.6114C36.6467 19.5534 35.7642 20.3968 35.7642 21.6841C35.7642 22.4769 36.0064 22.9389 36.33 23.4194L37.0723 24.4032C37.7245 25.2754 38.4654 26.0853 39.1282 26.9495C39.3557 27.246 39.3596 27.6237 39.0521 27.8927C38.8107 28.1039 37.8252 28.338 37.4747 28.4395C36.3873 28.7545 35.2371 29.0015 34.1772 29.3903C33.86 29.5067 33.5584 29.7079 33.3185 29.9478C32.3956 30.8707 32.3844 31.5945 32.3992 32.7935L32.5795 36.2892C32.5752 37.5737 31.9486 37.4094 31.0677 37.09C30.1555 36.7591 27.7433 35.6904 26.915 35.6224C24.6061 35.4328 24.1128 36.7717 23.0193 38.4119C22.5743 39.0792 22.1401 39.7713 21.6605 40.4164C21.1797 41.063 20.9042 41.0595 20.414 40.4419C20.239 40.2214 20.0898 40.0153 19.9303 39.775C19.3234 38.8605 18.7701 37.956 18.1259 37.0655C17.2765 35.8915 16.7126 35.5219 15.1405 35.6222C14.4888 35.6638 13.9886 35.9267 13.4158 36.1545C12.7179 36.432 10.6817 37.3055 10.0088 37.3055C9.71891 37.3055 9.47772 36.9751 9.47772 36.686C9.47772 35.6674 9.55844 34.7331 9.61068 33.7655C9.69366 32.2291 9.85992 30.8301 8.55536 29.7755C8.10744 29.4134 7.76845 29.3277 7.14195 29.1533C5.9944 28.8337 4.28825 28.4297 3.19804 28.008C2.98594 27.926 2.7512 27.6898 2.7512 27.3928C2.7512 27.0199 3.41432 26.3262 3.65016 26.0349C4.04411 25.5483 5.84526 23.439 6.07671 22.797C6.43608 21.8001 6.34587 20.7986 5.71615 19.9582C5.06086 19.0838 4.35431 18.2552 3.67475 17.3972C3.57926 17.2767 3.50046 17.1957 3.4142 17.0826C3.13097 16.7109 2.7512 16.3551 2.7512 15.8427C2.7512 15.3016 4.40776 14.9885 4.84036 14.8784C5.71917 14.6548 7.59448 14.2202 8.30943 13.7894C8.64991 13.5842 8.87353 13.3513 9.09754 13.0286C9.75047 12.088 9.64035 11.6258 9.60902 10.578C9.60165 10.3326 9.62381 10.0672 9.61068 9.82399L9.5205 8.40958C9.51166 8.11214 9.5231 7.88681 9.4898 7.64373C9.41453 7.09461 9.404 5.97334 10.1225 6.07732C11.5846 6.28878 14.0986 7.78857 15.3634 7.78857C15.9196 7.78857 16.474 7.77969 16.9386 7.50513C17.8167 6.98619 18.194 6.24216 18.7444 5.41668C19.0977 4.88667 19.4091 4.39742 19.7622 3.86781C21.1925 1.7224 21.1169 2.14065 22.7624 4.59363L23.8065 6.16049C24.2241 6.78436 24.4609 7.1056 25.0899 7.48807C25.5598 7.7737 26.1207 7.78857 26.6922 7.78857C27.2915 7.78857 27.8442 7.54108 28.3042 7.3649C28.8275 7.1644 29.2916 6.99892 29.809 6.78984C30.3244 6.58156 30.8006 6.41281 31.3329 6.23376C31.5319 6.16679 31.9342 6.03197 32.1429 6.0958C32.7278 6.27458 32.6059 7.2288 32.5457 7.66791C32.4586 8.30408 32.4944 9.99499 32.413 10.5886C32.341 11.1136 32.4483 12.0341 32.5833 12.3855C32.7668 12.8632 33.0709 13.2365 33.4492 13.5552C33.6371 13.7134 33.7843 13.8479 34.0245 13.9535C34.7423 14.269 35.6021 14.4606 36.3744 14.6571C36.8957 14.7897 37.4444 14.9421 37.9716 15.0956C38.2365 15.1727 38.4715 15.2446 38.7467 15.3383C38.938 15.4035 39.3044 15.5976 39.3044 15.7984L39.3044 15.7985ZM20.6741 0H21.2792C21.8263 0.0560758 22.3681 0.262243 22.8609 0.600833C23.6943 1.1734 25.0964 3.55292 25.6743 4.42552C25.8281 4.6578 25.9959 4.87271 26.1601 5.09038C26.4025 5.41189 26.495 5.28362 26.9047 5.16889C28.3351 4.76824 30.6532 3.54029 31.9141 3.54029C33.2285 3.54029 34.2104 4.1954 34.7321 5.23618C34.8688 5.5088 35.0562 6.03309 35.0562 6.41672C35.0562 7.01929 35.0657 8.92847 34.9932 9.40729L34.9238 10.3999C34.8883 11.1434 34.6819 11.4279 35.2706 11.6897C35.8802 11.9608 38.3656 12.6047 39.039 12.7892C39.5638 12.933 40.099 13.1054 40.5252 13.4271C40.6499 13.5212 40.7818 13.6246 40.8874 13.7287C41.6791 14.5097 41.7827 14.9995 41.7827 16.1525C41.7827 17.3602 40.8843 18.2904 40.2035 19.1313C39.9453 19.4502 38.2291 21.4581 38.2641 21.714C38.2849 21.8658 39.085 22.8741 39.2261 23.0458C39.408 23.2671 39.5554 23.464 39.7368 23.6857C39.8302 23.7997 39.8999 23.885 39.9933 24.0046C40.7409 24.9621 41.7826 25.9398 41.7826 27.2601V27.2921V27.4242C41.7819 28.0186 41.7642 28.4211 41.443 28.956C41.0948 29.536 40.603 29.9873 39.984 30.285C39.1227 30.699 36.776 31.1918 35.714 31.5467C34.6523 31.9014 34.8457 32.0089 34.926 33.0546C35.0005 34.0259 35.0562 35.0003 35.0562 35.9779C35.0562 36.9225 35.1056 37.3944 34.6733 38.2504C34.0776 39.4296 32.6646 40.0451 31.3703 39.7965C30.7052 39.6688 30.0864 39.399 29.4735 39.1709C29.2595 39.0912 29.0626 39.0239 28.8602 38.9434C28.5033 38.8014 26.7029 38.1021 26.3825 38.1021C26.1358 38.1021 25.0263 39.9841 24.7806 40.3503C24.6068 40.6094 24.4609 40.8293 24.2851 41.0939C24.0399 41.4632 23.7787 41.8645 23.4729 42.1846C23.3504 42.3128 23.3075 42.3975 23.1869 42.5182C22.7954 42.9098 22.085 43.3683 21.5146 43.3683H20.6633C20.3228 43.3496 20.0213 43.2784 19.5818 43.0442C19.3157 42.9023 19.0513 42.7093 18.8468 42.4958C18.4391 42.07 18.0758 41.5548 17.7529 41.0673C17.513 40.705 15.9102 38.1021 15.6289 38.1021C15.4997 38.1021 14.5276 38.441 14.3519 38.5068C13.957 38.6547 13.5473 38.8106 13.132 38.9685C12.3283 39.2742 11.4958 39.6546 10.6484 39.8039C9.79634 39.954 8.74263 39.7406 8.11615 39.1539C7.51649 38.5924 6.99949 37.8693 6.99949 36.9516C6.99949 35.6585 7.0138 33.6861 7.17069 32.3863C7.22441 31.9415 7.13535 31.8805 6.85337 31.743C5.70032 31.1806 2.96365 30.7886 1.80724 30.1511C1.04976 29.7335 0.272949 28.8231 0.272949 27.8796V27.2478C0.282275 26.8984 0.327503 26.6173 0.51232 26.1718C0.887844 25.2667 3.07509 22.7864 3.81323 21.6841L3.67995 21.5076C2.86191 20.2869 1.81436 19.1517 0.936435 17.9229C0.692965 17.5822 0.272949 16.9334 0.272949 16.3737V15.978C0.277048 15.2824 0.326473 14.7535 0.797362 14.1544C1.47731 13.2894 2.12983 13.0477 3.18847 12.7397L6.19362 11.8949C6.88744 11.7016 7.25224 11.5912 7.16475 10.9873C7.14252 10.8339 7.13815 10.7441 7.13309 10.5314C7.12786 10.3117 7.09284 10.3107 7.08656 10.0912C7.082 9.93111 7.09937 9.76865 7.08151 9.60945C7.06541 9.46577 7.04249 9.41296 7.04222 9.20622L6.99949 6.37252C6.99949 5.65561 7.48373 4.82438 7.9609 4.36896C8.55813 3.7989 9.3224 3.54029 10.1857 3.54029C10.8731 3.54029 11.4187 3.81085 11.9507 3.98798C13.0348 4.34896 14.0664 4.79324 15.1588 5.16104C15.7892 5.37336 15.7669 5.34909 16.3458 4.47843C16.9296 3.60039 17.4602 2.687 18.0942 1.84579C18.4042 1.43436 18.7266 0.973191 19.1179 0.65686C19.5965 0.269974 20.1298 0.0568857 20.6741 0V0Z" fill="#FF7272"/>
<path fill-rule="evenodd" clip-rule="evenodd" d="M15.0537 28.2779C15.0537 28.831 15.1235 29.4005 15.7359 29.6313C16.0299 29.7421 16.5469 29.7348 16.7962 29.6221C17.2122 29.434 19.6642 25.8262 19.9657 25.4013L22.2851 22.1005C23.6173 20.1752 25.1191 18.1074 26.3919 16.2061C26.5178 16.0179 26.6193 15.8621 26.7456 15.6747C26.9784 15.3294 27.0021 15.2839 27.0021 14.8691C27.0021 14.0557 26.4974 13.6743 25.7188 13.6743C25.1634 13.6743 25.0158 13.9475 24.7705 14.2749C23.6188 15.8126 22.5692 17.3818 21.4772 18.8586C21.3574 19.0206 21.271 19.1627 21.1483 19.3263C21.0301 19.4838 20.9232 19.6298 20.815 19.7896L20.1604 20.7281C19.4608 21.7881 15.0537 27.8413 15.0537 28.2779V28.2779Z" fill="#FF7272"/>
<path fill-rule="evenodd" clip-rule="evenodd" d="M25.8957 27.0388C25.8957 27.4395 25.846 27.6007 25.4879 27.9587C24.9492 28.4973 23.4884 28.2085 23.6177 27.0184C23.7362 25.9285 24.8812 25.6065 25.5393 26.2447L25.7697 26.5895C25.8254 26.7127 25.8957 26.8521 25.8957 27.0388V27.0388ZM24.7451 30.7561C25.82 30.7561 26.8024 30.228 27.3455 29.6835C27.834 29.1938 28.1554 28.5916 28.3191 27.9133C28.5068 27.1358 28.3974 26.2195 28.0797 25.5629C27.9765 25.3498 27.8733 25.1529 27.7426 24.9707C27.6735 24.8743 27.6216 24.8161 27.5471 24.7237C27.185 24.2751 26.7359 23.958 26.2055 23.7198C25.0092 23.1826 23.6865 23.4003 22.6383 24.0913C22.511 24.1751 22.4957 24.1871 22.3882 24.2836C22.05 24.5876 22.2774 24.3152 21.923 24.7478C21.5687 25.1804 21.275 25.7406 21.1721 26.298C20.941 27.5493 21.2111 28.6336 22.0319 29.5308C22.3536 29.8826 22.7842 30.2258 23.2274 30.4152C23.6308 30.5876 24.1918 30.7561 24.7452 30.7561L24.7451 30.7561Z" fill="#FF7272"/>
<path fill-rule="evenodd" clip-rule="evenodd" d="M16.1596 16.418C16.1596 16.1985 16.1421 16.0317 16.2491 15.8437C16.6166 15.1982 16.9378 15.179 17.3988 15.179C17.6665 15.179 18.0055 15.3519 18.1395 15.5003C18.8442 16.2803 18.249 17.4197 17.3902 17.4682C17.1361 17.4825 16.6971 17.3162 16.5453 17.183C16.3547 17.0157 16.1596 16.5839 16.1596 16.418V16.418ZM13.6372 16.1968C13.6372 17.0267 13.8311 17.7464 14.2939 18.3723C14.6849 18.901 15.1146 19.2971 15.7159 19.6055C17.3799 20.459 19.6628 19.7695 20.5713 17.9532C21.0605 16.9752 21.0818 15.6128 20.5862 14.6467C19.8731 13.2563 18.6034 12.6565 17.0447 12.6565C15.3558 12.6565 13.6372 14.3663 13.6372 16.1968Z" fill="#FF7272"/>
</svg>
