<!-- icon666.com - MILLIONS vector ICONS FREE --><svg viewBox="0 0 64 64" xmlns="http://www.w3.org/2000/svg"><g id="Layer_66" data-name="Layer 66"><path d="m58.53 27.47a.48.48 0 0 0 -.33-.18.55.55 0 0 0 -.37.12l-25.83 21.41-25.83-21.41a.53.53 0 0 0 -.37-.12.48.48 0 0 0 -.33.18l-1.85 2.23a.51.51 0 0 0 .06.71c.38.15 27.83 23.38 28.32 23.33a.49.49 0 0 0 .32-.12l28-23.21a.51.51 0 0 0 .06-.71z"></path><path d="m32 37.5a.48.48 0 0 0 .32-.11l28-23.22a.49.49 0 0 0 .06-.7l-1.85-2.23a.48.48 0 0 0 -.33-.18.54.54 0 0 0 -.37.11l-25.83 21.42-25.83-21.42a.53.53 0 0 0 -.37-.11.48.48 0 0 0 -.33.18l-1.85 2.23a.49.49 0 0 0 .06.7c.38.16 27.83 23.39 28.32 23.33z"></path></g></svg>