<!-- icon666.com - MILLIONS vector ICONS FREE --><svg id="Layer_1" enable-background="new 0 0 511.998 511.998" viewBox="0 0 511.998 511.998" xmlns="http://www.w3.org/2000/svg"><path d="m316.998 61c-52.129 0-99.545 20.562-134.566 54h-117.433v-99.999c0-8.284-6.716-15-15-15h-34.999c-8.284 0-15 6.716-15 15s6.716 15 15 15h19.999v451.996h-19.999c-8.284 0-15 6.716-15 15s6.716 15 15 15h34.999c8.284 0 15-6.716 15-15v-99.996h117.434c35.021 33.437 82.437 53.999 134.565 53.999 107.523 0 195-87.477 195-195s-87.477-195-195-195zm-251.999 84h91.769c-21.907 31.526-34.77 69.786-34.77 111s12.864 79.475 34.771 111.001h-91.77zm251.999 276c-90.981 0-165-74.019-165-165s74.019-165 165-165 165 74.019 165 165-74.019 165-165 165z"></path><path d="m419.254 153.69c-3.63-2.843-8.368-3.858-12.846-2.751l-126.037 31.161c-6.696 1.655-11.4 7.664-11.4 14.562v77.413c-4.69-1.661-9.73-2.574-14.982-2.574-24.813 0-45 20.187-45 45s20.187 45.001 45 45.001c22.423 0 41.063-16.486 44.448-37.972.338-1.251.535-115.124.535-115.124l96.037-23.743v64.358c-4.695-1.665-9.741-2.58-15-2.58-24.813 0-45 20.187-45 45s20.187 45 45 45 45-20.187 45-45c0-1.497 0-125.938 0-125.938-.001-4.614-2.123-8.97-5.755-11.813zm-165.266 177.811c-8.271 0-15-6.729-15-15.001s6.729-15 15-15c8.154 0 14.796 6.543 14.982 14.653v.694c-.186 8.11-6.827 14.654-14.982 14.654zm126.02-25.062c-8.271 0-15-6.729-15-15s6.729-15 15-15 15 6.729 15 15-6.729 15-15 15z"></path></svg>